# Blender v2.83.3 OBJ File: 'm26.blend'
# www.blender.org
o right_wheel_engine_Cylinder.009
v -0.105090 -0.000000 -0.148890
v 0.105090 0.000000 -0.148890
v -0.105090 -0.029047 -0.146029
v 0.105090 -0.029047 -0.146029
v -0.105090 -0.056978 -0.137556
v 0.105090 -0.056978 -0.137556
v -0.105090 -0.082719 -0.123798
v 0.105090 -0.082719 -0.123798
v -0.105090 -0.105281 -0.105281
v 0.105090 -0.105281 -0.105281
v -0.105090 -0.123798 -0.082719
v 0.105090 -0.123798 -0.082719
v -0.105090 -0.137556 -0.056978
v 0.105090 -0.137556 -0.056978
v -0.105090 -0.146029 -0.029047
v 0.105090 -0.146029 -0.029047
v -0.105090 -0.148890 -0.000000
v 0.105090 -0.148890 -0.000000
v -0.105090 -0.146029 0.029047
v 0.105090 -0.146029 0.029047
v -0.105090 -0.137556 0.056978
v 0.105090 -0.137556 0.056978
v -0.105090 -0.123798 0.082719
v 0.105090 -0.123798 0.082719
v -0.105090 -0.105281 0.105281
v 0.105090 -0.105281 0.105281
v -0.105090 -0.082719 0.123798
v 0.105090 -0.082719 0.123798
v -0.105090 -0.056978 0.137556
v 0.105090 -0.056978 0.137556
v -0.105090 -0.029047 0.146029
v 0.105090 -0.029047 0.146029
v -0.105090 0.000000 0.148890
v 0.105090 0.000000 0.148890
v -0.105090 0.029047 0.146029
v 0.105090 0.029047 0.146029
v -0.105090 0.056978 0.137556
v 0.105090 0.056978 0.137556
v -0.105090 0.082719 0.123797
v 0.105090 0.082719 0.123797
v -0.105090 0.105281 0.105281
v 0.105090 0.105281 0.105281
v -0.105090 0.123798 0.082719
v 0.105090 0.123798 0.082719
v -0.105090 0.137556 0.056978
v 0.105090 0.137557 0.056978
v -0.105090 0.146029 0.029047
v 0.105090 0.146029 0.029047
v -0.105090 0.148890 -0.000000
v 0.105090 0.148890 -0.000000
v -0.105090 0.146029 -0.029047
v 0.105090 0.146029 -0.029047
v -0.105090 0.137556 -0.056978
v 0.105090 0.137556 -0.056978
v -0.105090 0.123797 -0.082719
v 0.105090 0.123797 -0.082719
v -0.105090 0.105281 -0.105281
v 0.105090 0.105281 -0.105281
v -0.105090 0.082719 -0.123798
v 0.105090 0.082719 -0.123798
v -0.105090 0.056978 -0.137557
v 0.105090 0.056978 -0.137557
v -0.105090 0.029047 -0.146029
v 0.105090 0.029047 -0.146029
v -0.105090 -0.002059 -0.169799
v -0.105090 -0.031106 -0.166938
v 0.105090 -0.031106 -0.166938
v 0.105090 -0.002059 -0.169799
v 0.105090 -0.096048 -0.140039
v -0.105090 -0.096048 -0.140039
v -0.105090 -0.118610 -0.121522
v 0.105090 -0.118610 -0.121522
v 0.105090 -0.157662 -0.063077
v -0.105090 -0.157662 -0.063077
v -0.105090 -0.166135 -0.035146
v 0.105090 -0.166135 -0.035146
v 0.105090 -0.166135 0.035146
v -0.105090 -0.166135 0.035146
v -0.105090 -0.157662 0.063077
v 0.105090 -0.157662 0.063077
v 0.105090 -0.118610 0.121522
v -0.105090 -0.118610 0.121522
v -0.105090 -0.096048 0.140039
v 0.105090 -0.096048 0.140039
v 0.105090 -0.031106 0.166938
v -0.105090 -0.031106 0.166938
v -0.105090 -0.002059 0.169799
v 0.105090 -0.002059 0.169799
v 0.105090 0.092623 -0.142327
v -0.105090 0.092623 -0.142327
v -0.105090 0.066882 -0.156086
v 0.105090 0.066882 -0.156086
v 0.105090 -0.020181 -0.101459
v 0.105090 0.000000 -0.103446
v 0.105090 0.020181 -0.101459
v 0.105090 0.039587 -0.095572
v 0.105090 0.057472 -0.086013
v 0.105090 0.073147 -0.073148
v 0.105090 0.086012 -0.057472
v 0.105090 0.095572 -0.039587
v 0.105090 0.101459 -0.020181
v 0.105090 0.103446 -0.000000
v 0.105090 0.101459 0.020181
v 0.105090 0.095572 0.039587
v 0.105090 0.086012 0.057472
v 0.105090 0.073148 0.073148
v 0.105090 0.057472 0.086012
v 0.105090 0.039587 0.095572
v 0.105090 0.020181 0.101459
v 0.105090 0.000000 0.103446
v 0.105090 -0.020181 0.101459
v 0.105090 -0.039587 0.095572
v 0.105090 -0.057472 0.086012
v 0.105090 -0.073148 0.073148
v 0.105090 -0.086012 0.057472
v 0.105090 -0.095572 0.039587
v 0.105090 -0.101459 0.020181
v 0.105090 -0.103446 -0.000000
v 0.105090 -0.101459 -0.020181
v 0.105090 -0.095572 -0.039587
v 0.105090 -0.086012 -0.057472
v 0.105090 -0.073148 -0.073148
v 0.105090 -0.057472 -0.086012
v 0.105090 -0.039587 -0.095572
v 0.105090 0.153419 -0.065457
v -0.105090 0.153419 -0.065457
v -0.105090 0.139660 -0.091198
v 0.105090 0.139660 -0.091198
vt 0.250000 0.010000
vt 0.296822 0.014612
vt 0.296822 0.014612
vt 0.968750 1.000000
vt 0.937500 0.500000
vt 0.968750 0.500000
vt 0.937500 1.000000
vt 0.906250 0.500000
vt 0.485388 0.296822
vt 0.471731 0.341844
vt 0.471731 0.341844
vt 0.875000 1.000000
vt 0.843750 0.500000
vt 0.875000 0.500000
vt 0.843750 1.000000
vt 0.812500 0.500000
vt 0.093750 1.000000
vt 0.093750 0.500000
vt 0.093750 0.500000
vt 0.781250 1.000000
vt 0.750000 0.500000
vt 0.781250 0.500000
vt 0.750000 1.000000
vt 0.718750 0.500000
vt 0.796822 0.014612
vt 0.750000 0.010000
vt 0.750000 0.010000
vt 0.687500 1.000000
vt 0.656250 0.500000
vt 0.687500 0.500000
vt 0.656250 1.000000
vt 0.625000 0.500000
vt 0.971731 0.341844
vt 0.985388 0.296822
vt 0.985388 0.296822
vt 0.593750 1.000000
vt 0.562500 0.500000
vt 0.593750 0.500000
vt 0.562500 1.000000
vt 0.531250 0.500000
vt 0.531250 1.000000
vt 0.531250 0.500000
vt 0.500000 1.000000
vt 0.468750 0.500000
vt 0.500000 0.500000
vt 0.468750 1.000000
vt 0.437500 0.500000
vt 0.437500 1.000000
vt 0.406250 0.500000
vt 0.406250 1.000000
vt 0.375000 0.500000
vt 0.375000 1.000000
vt 0.343750 0.500000
vt 0.343750 1.000000
vt 0.312500 0.500000
vt 0.312500 1.000000
vt 0.281250 0.500000
vt 0.281250 1.000000
vt 0.250000 0.500000
vt 0.250000 1.000000
vt 0.218750 0.500000
vt 0.218750 1.000000
vt 0.187500 0.500000
vt 0.156250 0.500000
vt 0.156250 1.000000
vt 0.156250 1.000000
vt 0.125000 0.500000
vt 0.125000 1.000000
vt 0.812500 1.000000
vt 0.812500 0.500000
vt 0.062500 1.000000
vt 0.031250 0.500000
vt 0.062500 0.500000
vt 0.031250 1.000000
vt 0.000000 0.500000
vt 0.514611 0.203179
vt 1.000000 1.000000
vt 0.968750 0.500000
vt 1.000000 0.500000
vt 0.906250 1.000000
vt 0.875000 0.500000
vt 0.906250 0.500000
vt 0.812500 1.000000
vt 0.781250 0.500000
vt 0.718750 1.000000
vt 0.687500 0.500000
vt 0.718750 0.500000
vt 0.625000 1.000000
vt 0.593750 0.500000
vt 0.625000 0.500000
vt 0.531250 1.000000
vt 0.500000 0.500000
vt 0.093750 1.000000
vt 0.062500 0.500000
vt 0.616663 0.449553
vt 0.658156 0.471731
vt 0.658156 0.471731
vt 0.781250 1.000000
vt 0.500000 1.000000
vt 0.116663 0.449553
vt 0.158156 0.471731
vt 0.116663 0.449553
vt 0.906250 1.000000
vt 0.625000 1.000000
vt 0.062500 1.000000
vt 0.883337 0.449553
vt 0.919706 0.419706
vt 0.919706 0.419706
vt 0.919706 0.080294
vt 0.883337 0.050447
vt 0.883337 0.050447
vt 0.419706 0.419706
vt 0.383337 0.449553
vt 0.383337 0.449553
vt 0.383337 0.050447
vt 0.419706 0.080294
vt 0.419706 0.080294
vt 0.875000 1.000000
vt 0.593750 1.000000
vt 0.750000 0.490000
vt 0.796822 0.485388
vt 0.796822 0.485388
vt 0.718750 1.000000
vt 0.296822 0.485388
vt 0.250000 0.490000
vt 0.250000 0.490000
vt 0.985388 0.203178
vt 0.971731 0.158156
vt 0.971731 0.158156
vt 0.000000 1.000000
vt 0.000000 0.500000
vt 0.471731 0.158156
vt 0.485388 0.203178
vt 0.485388 0.203178
vt 0.968750 1.000000
vt 0.687500 1.000000
vt 0.282531 0.413544
vt 0.203179 0.485389
vt 0.250000 0.416748
vt 0.186188 0.404055
vt 0.217470 0.413544
vt 0.158156 0.471731
vt 0.132092 0.367909
vt 0.157360 0.388646
vt 0.080295 0.419706
vt 0.111354 0.342640
vt 0.028269 0.341844
vt 0.050447 0.383337
vt 0.014612 0.296822
vt 0.095945 0.313812
vt 0.010000 0.250000
vt 0.086456 0.282531
vt 0.014611 0.203179
vt 0.083252 0.250000
vt 0.095945 0.186189
vt 0.086456 0.217469
vt 0.050447 0.116663
vt 0.028269 0.158156
vt 0.132091 0.132092
vt 0.111354 0.157360
vt 0.116663 0.050447
vt 0.080294 0.080294
vt 0.158156 0.028269
vt 0.157360 0.111354
vt 0.203178 0.014612
vt 0.186188 0.095945
vt 0.217469 0.086456
vt 0.282531 0.086456
vt 0.250000 0.083252
vt 0.341844 0.028269
vt 0.342640 0.111354
vt 0.313812 0.095945
vt 0.449553 0.116663
vt 0.367909 0.132092
vt 0.388646 0.157360
vt 0.413544 0.217469
vt 0.404055 0.186188
vt 0.490000 0.250000
vt 0.416748 0.250000
vt 0.413544 0.282531
vt 0.388646 0.342640
vt 0.404055 0.313812
vt 0.449553 0.383337
vt 0.367909 0.367909
vt 0.313812 0.404055
vt 0.342640 0.388646
vt 0.341844 0.471731
vt 0.187500 1.000000
vt 0.156250 0.500000
vt 0.187500 0.500000
vt 0.528269 0.341844
vt 0.550447 0.383337
vt 0.550447 0.383337
vt 0.028269 0.341844
vt 0.187500 1.000000
vt 0.250000 0.010000
vt 0.485388 0.296822
vt 0.796822 0.014612
vt 0.971731 0.341844
vt 0.703179 0.485389
vt 0.841844 0.471731
vt 0.949553 0.383337
vt 0.990000 0.250000
vt 0.949553 0.116663
vt 0.841844 0.028269
vt 0.703178 0.014612
vt 0.658156 0.028269
vt 0.616663 0.050447
vt 0.580294 0.080294
vt 0.550447 0.116663
vt 0.528269 0.158156
vt 0.510000 0.250000
vt 0.514612 0.296822
vt 0.580295 0.419706
vt 0.616663 0.449553
vt 0.883337 0.449553
vt 0.919706 0.080294
vt 0.419706 0.419706
vt 0.383337 0.050447
vt 0.750000 0.490000
vt 0.296822 0.485388
vt 0.985388 0.203178
vt 0.000000 1.000000
vt 0.471731 0.158156
vt 0.528269 0.341844
vt 0.050447 0.383337
vn 1.0000 0.0000 0.0000
vn 0.0000 -0.2903 -0.9569
vn 0.0000 -0.4714 -0.8819
vn 0.0000 -0.7730 -0.6344
vn 0.0000 -0.8819 -0.4714
vn -0.0000 0.8819 0.4714
vn 0.0000 -0.9952 -0.0980
vn 0.0000 -0.9952 0.0980
vn -1.0000 -0.0000 0.0000
vn 0.0000 -0.8819 0.4714
vn 0.0000 -0.7730 0.6344
vn 0.0000 -0.4714 0.8819
vn 0.0000 -0.2903 0.9569
vn 0.0000 0.0980 0.9952
vn 0.0000 0.2903 0.9569
vn -0.0000 0.4714 0.8819
vn -0.0000 0.6344 0.7730
vn -0.0000 0.7730 0.6344
vn -0.0000 0.9569 0.2903
vn -0.0000 0.9952 0.0980
vn -0.0000 0.9952 -0.0980
vn -0.0000 0.9569 -0.2903
vn -0.0000 0.7730 -0.6344
vn -0.0000 0.6344 -0.7730
vn 0.0000 0.2903 -0.9569
vn 0.0000 0.0980 -0.9952
vn 0.0000 -0.0980 -0.9952
vn 0.0000 -0.6344 -0.7730
vn 0.0000 -0.9569 -0.2903
vn 0.0000 -0.9569 0.2903
vn 0.0000 -0.6344 0.7730
vn 0.0000 -0.0980 0.9952
vn 0.0000 0.4714 -0.8819
vn -0.0000 0.8819 -0.4714
s off
f 34/1/1 85/2/1 32/3/1
f 4/4/2 5/5/2 3/6/2
f 6/7/3 7/8/3 5/5/3
f 16/9/1 73/10/1 14/11/1
f 10/12/4 11/13/4 9/14/4
f 12/15/5 13/16/5 11/13/5
f 60/17/6 90/18/6 59/19/6
f 16/20/7 17/21/7 15/22/7
f 18/23/8 19/24/8 17/21/8
f 31/25/9 87/26/9 33/27/9
f 22/28/10 23/29/10 21/30/10
f 24/31/11 25/32/11 23/29/11
f 13/33/9 75/34/9 15/35/9
f 28/36/12 29/37/12 27/38/12
f 30/39/13 31/40/13 29/37/13
f 32/41/7 86/42/7 31/40/7
f 34/43/14 35/44/14 33/45/14
f 36/46/15 37/47/15 35/44/15
f 38/48/16 39/49/16 37/47/16
f 40/50/17 41/51/17 39/49/17
f 42/52/18 43/53/18 41/51/18
f 44/54/6 45/55/6 43/53/6
f 46/56/19 47/57/19 45/55/19
f 48/58/20 49/59/20 47/57/20
f 50/60/21 51/61/21 49/59/21
f 52/62/22 53/63/22 51/61/22
f 55/64/3 128/65/3 56/66/3
f 56/66/23 57/67/23 55/64/23
f 58/68/24 59/19/24 57/67/24
f 14/69/25 74/70/25 13/16/25
f 62/71/25 63/72/25 61/73/25
f 64/74/26 1/75/26 63/72/26
f 15/35/9 31/25/9 47/76/9
f 68/77/27 66/78/27 65/79/27
f 69/80/28 71/81/28 70/82/28
f 73/83/29 75/84/29 74/70/29
f 77/85/30 79/86/30 78/87/30
f 81/88/31 83/89/31 82/90/31
f 85/91/32 87/92/32 86/42/32
f 89/93/33 91/94/33 90/18/33
f 59/95/9 91/96/9 61/97/9
f 15/22/13 76/98/13 16/20/13
f 33/45/20 88/99/20 34/43/20
f 60/100/1 92/101/1 89/102/1
f 8/103/23 70/82/23 7/8/23
f 26/104/4 82/90/4 25/32/4
f 61/73/5 92/105/5 62/71/5
f 7/106/9 71/107/9 9/108/9
f 25/109/9 83/110/9 27/111/9
f 10/112/1 69/113/1 8/114/1
f 28/115/1 81/116/1 26/117/1
f 9/14/11 72/118/11 10/12/11
f 27/38/18 84/119/18 28/36/18
f 1/120/9 66/121/9 3/122/9
f 20/123/2 78/87/2 19/24/2
f 4/124/1 68/125/1 2/126/1
f 19/127/9 79/128/9 21/129/9
f 2/130/21 65/131/21 1/75/21
f 22/132/1 77/133/1 20/134/1
f 3/6/8 67/135/8 4/4/8
f 21/30/15 80/136/15 22/28/15
f 2/126/1 93/137/1 4/124/1
f 64/138/1 94/139/1 2/126/1
f 64/138/1 96/140/1 95/141/1
f 60/100/1 96/140/1 62/142/1
f 60/100/1 98/143/1 97/144/1
f 58/145/1 99/146/1 98/143/1
f 54/147/1 99/146/1 56/148/1
f 52/149/1 100/150/1 54/147/1
f 50/151/1 101/152/1 52/149/1
f 48/153/1 102/154/1 50/151/1
f 48/153/1 104/155/1 103/156/1
f 44/157/1 104/155/1 46/158/1
f 44/157/1 106/159/1 105/160/1
f 40/161/1 106/159/1 42/162/1
f 38/163/1 107/164/1 40/161/1
f 36/165/1 108/166/1 38/163/1
f 34/1/1 109/167/1 36/165/1
f 34/1/1 111/168/1 110/169/1
f 30/170/1 111/168/1 32/3/1
f 30/170/1 113/171/1 112/172/1
f 26/117/1 113/171/1 28/115/1
f 24/173/1 114/174/1 26/117/1
f 22/132/1 115/175/1 24/173/1
f 22/132/1 117/176/1 116/177/1
f 18/178/1 117/176/1 20/134/1
f 16/9/1 118/179/1 18/178/1
f 14/11/1 119/180/1 16/9/1
f 14/11/1 121/181/1 120/182/1
f 10/112/1 121/181/1 12/183/1
f 8/114/1 122/184/1 10/112/1
f 8/114/1 124/185/1 123/186/1
f 4/124/1 124/185/1 6/187/1
f 125/188/34 127/189/34 126/190/34
f 53/191/9 127/192/9 55/193/9
f 56/148/1 125/194/1 54/147/1
f 54/195/16 126/190/16 53/63/16
f 34/1/1 88/196/1 85/2/1
f 4/4/2 6/7/2 5/5/2
f 6/7/3 8/103/3 7/8/3
f 16/9/1 76/197/1 73/10/1
f 10/12/4 12/15/4 11/13/4
f 12/15/5 14/69/5 13/16/5
f 60/17/6 89/93/6 90/18/6
f 16/20/7 18/23/7 17/21/7
f 18/23/8 20/123/8 19/24/8
f 31/25/9 86/198/9 87/26/9
f 22/28/10 24/31/10 23/29/10
f 24/31/11 26/104/11 25/32/11
f 13/33/9 74/199/9 75/34/9
f 28/36/12 30/39/12 29/37/12
f 30/39/13 32/41/13 31/40/13
f 32/41/7 85/91/7 86/42/7
f 34/43/14 36/46/14 35/44/14
f 36/46/15 38/48/15 37/47/15
f 38/48/16 40/50/16 39/49/16
f 40/50/17 42/52/17 41/51/17
f 42/52/18 44/54/18 43/53/18
f 44/54/6 46/56/6 45/55/6
f 46/56/19 48/58/19 47/57/19
f 48/58/20 50/60/20 49/59/20
f 50/60/21 52/62/21 51/61/21
f 52/62/22 54/195/22 53/63/22
f 55/64/3 127/189/3 128/65/3
f 56/66/23 58/68/23 57/67/23
f 58/68/24 60/17/24 59/19/24
f 14/69/25 73/83/25 74/70/25
f 62/71/25 64/74/25 63/72/25
f 64/74/26 2/130/26 1/75/26
f 63/200/9 1/120/9 3/122/9
f 3/122/9 5/201/9 7/106/9
f 7/106/9 9/108/9 11/202/9
f 11/202/9 13/33/9 7/106/9
f 13/33/9 15/35/9 7/106/9
f 15/35/9 17/203/9 19/127/9
f 19/127/9 21/129/9 15/35/9
f 21/129/9 23/204/9 15/35/9
f 23/204/9 25/109/9 31/25/9
f 25/109/9 27/111/9 31/25/9
f 27/111/9 29/205/9 31/25/9
f 31/25/9 33/27/9 35/206/9
f 35/206/9 37/207/9 39/208/9
f 39/208/9 41/209/9 43/210/9
f 43/210/9 45/211/9 47/76/9
f 47/76/9 49/212/9 51/213/9
f 51/213/9 53/191/9 55/193/9
f 55/193/9 57/214/9 63/200/9
f 57/214/9 59/95/9 63/200/9
f 59/95/9 61/97/9 63/200/9
f 63/200/9 3/122/9 7/106/9
f 31/25/9 35/206/9 47/76/9
f 35/206/9 39/208/9 47/76/9
f 39/208/9 43/210/9 47/76/9
f 47/76/9 51/213/9 63/200/9
f 51/213/9 55/193/9 63/200/9
f 63/200/9 7/106/9 15/35/9
f 15/35/9 23/204/9 31/25/9
f 63/200/9 15/35/9 47/76/9
f 68/77/27 67/135/27 66/78/27
f 69/80/28 72/118/28 71/81/28
f 73/83/29 76/98/29 75/84/29
f 77/85/30 80/136/30 79/86/30
f 81/88/31 84/119/31 83/89/31
f 85/91/32 88/99/32 87/92/32
f 89/93/33 92/105/33 91/94/33
f 59/95/9 90/215/9 91/96/9
f 15/22/13 75/84/13 76/98/13
f 33/45/20 87/92/20 88/99/20
f 60/100/1 62/142/1 92/101/1
f 8/103/23 69/80/23 70/82/23
f 26/104/4 81/88/4 82/90/4
f 61/73/5 91/94/5 92/105/5
f 7/106/9 70/216/9 71/107/9
f 25/109/9 82/217/9 83/110/9
f 10/112/1 72/218/1 69/113/1
f 28/115/1 84/219/1 81/116/1
f 9/14/11 71/81/11 72/118/11
f 27/38/18 83/89/18 84/119/18
f 1/120/9 65/220/9 66/121/9
f 20/123/2 77/85/2 78/87/2
f 4/124/1 67/221/1 68/125/1
f 19/127/9 78/222/9 79/128/9
f 2/130/21 68/223/21 65/131/21
f 22/132/1 80/224/1 77/133/1
f 3/6/8 66/78/8 67/135/8
f 21/30/15 79/86/15 80/136/15
f 2/126/1 94/139/1 93/137/1
f 64/138/1 95/141/1 94/139/1
f 64/138/1 62/142/1 96/140/1
f 60/100/1 97/144/1 96/140/1
f 60/100/1 58/145/1 98/143/1
f 58/145/1 56/148/1 99/146/1
f 54/147/1 100/150/1 99/146/1
f 52/149/1 101/152/1 100/150/1
f 50/151/1 102/154/1 101/152/1
f 48/153/1 103/156/1 102/154/1
f 48/153/1 46/158/1 104/155/1
f 44/157/1 105/160/1 104/155/1
f 44/157/1 42/162/1 106/159/1
f 40/161/1 107/164/1 106/159/1
f 38/163/1 108/166/1 107/164/1
f 36/165/1 109/167/1 108/166/1
f 34/1/1 110/169/1 109/167/1
f 34/1/1 32/3/1 111/168/1
f 30/170/1 112/172/1 111/168/1
f 30/170/1 28/115/1 113/171/1
f 26/117/1 114/174/1 113/171/1
f 24/173/1 115/175/1 114/174/1
f 22/132/1 116/177/1 115/175/1
f 22/132/1 20/134/1 117/176/1
f 18/178/1 118/179/1 117/176/1
f 16/9/1 119/180/1 118/179/1
f 14/11/1 120/182/1 119/180/1
f 14/11/1 12/183/1 121/181/1
f 10/112/1 122/184/1 121/181/1
f 8/114/1 123/186/1 122/184/1
f 8/114/1 6/187/1 124/185/1
f 4/124/1 93/137/1 124/185/1
f 125/188/34 128/65/34 127/189/34
f 53/191/9 126/225/9 127/192/9
f 56/148/1 128/226/1 125/194/1
f 54/195/16 125/188/16 126/190/16
f 100/150/1 108/166/1 116/177/1
f 124/185/1 93/137/1 94/139/1
f 94/139/1 95/141/1 124/185/1
f 95/141/1 96/140/1 124/185/1
f 96/140/1 97/144/1 100/150/1
f 97/144/1 98/143/1 100/150/1
f 98/143/1 99/146/1 100/150/1
f 100/150/1 101/152/1 102/154/1
f 102/154/1 103/156/1 100/150/1
f 103/156/1 104/155/1 100/150/1
f 104/155/1 105/160/1 108/166/1
f 105/160/1 106/159/1 108/166/1
f 106/159/1 107/164/1 108/166/1
f 108/166/1 109/167/1 110/169/1
f 110/169/1 111/168/1 108/166/1
f 111/168/1 112/172/1 108/166/1
f 112/172/1 113/171/1 116/177/1
f 113/171/1 114/174/1 116/177/1
f 114/174/1 115/175/1 116/177/1
f 116/177/1 117/176/1 118/179/1
f 118/179/1 119/180/1 116/177/1
f 119/180/1 120/182/1 116/177/1
f 120/182/1 121/181/1 122/184/1
f 122/184/1 123/186/1 120/182/1
f 123/186/1 124/185/1 120/182/1
f 124/185/1 96/140/1 100/150/1
f 100/150/1 104/155/1 108/166/1
f 108/166/1 112/172/1 116/177/1
f 116/177/1 120/182/1 124/185/1
f 124/185/1 100/150/1 116/177/1
