# Blender v2.83.3 OBJ File: 'm26.blend'
# www.blender.org
o right_track
v 0.681622 0.224035 -1.328920
v 0.681622 0.246647 -1.306239
v 0.681622 0.233813 -1.338668
v 0.681622 0.256425 -1.315987
v 0.832497 0.224035 -1.328920
v 0.832497 0.246647 -1.306239
v 0.832497 0.233813 -1.338668
v 0.832497 0.256425 -1.315987
v 0.544115 0.046699 1.083028
v 0.886804 0.046699 1.083028
v 0.544115 0.046699 -1.095915
v 0.886804 0.046699 -1.095915
v 0.544115 0.084119 -1.178773
v 0.886804 0.084119 -1.178773
v 0.544115 0.374120 -1.475456
v 0.886804 0.374120 -1.475456
v 0.544115 0.448959 -1.475456
v 0.886804 0.448959 -1.475456
v 0.544115 0.561285 -1.449292
v 0.886804 0.561285 -1.449292
v 0.544115 0.117529 1.219341
v 0.886804 0.117529 1.219341
v 0.544115 0.251170 1.490633
v 0.886804 0.251170 1.490633
v 0.544115 0.378129 1.529388
v 0.886804 0.378129 1.529388
v 0.544115 0.444738 1.519065
v 0.886804 0.444738 1.519065
v 0.544115 0.017771 1.092108
v 0.886804 0.017771 1.092108
v 0.544115 0.017547 -1.104010
v 0.886804 0.017547 -1.104010
v 0.544115 0.060395 -1.199763
v 0.886804 0.060395 -1.199763
v 0.544115 0.363411 -1.507491
v 0.886804 0.363411 -1.507491
v 0.544115 0.452040 -1.509569
v 0.886804 0.452040 -1.509569
v 0.544115 0.577970 -1.479061
v 0.886804 0.577970 -1.479061
v 0.544115 0.091561 1.236514
v 0.886804 0.091561 1.236514
v 0.544115 0.232790 1.517737
v 0.886804 0.232790 1.517737
v 0.544115 0.376388 1.563625
v 0.886804 0.376388 1.563625
v 0.544115 0.460180 1.549592
v 0.886804 0.460180 1.549592
v 0.886804 0.598300 -1.322611
v 0.544115 0.598300 -1.322611
v 0.886804 0.632290 -1.319570
v 0.544115 0.632290 -1.319570
v 0.886804 0.596290 0.870424
v 0.544115 0.596290 0.870424
v 0.886804 0.628204 0.882512
v 0.544115 0.628204 0.882512
v 0.886804 0.514046 1.432107
v 0.544115 0.514046 1.432107
v 0.886804 0.544125 1.448226
v 0.544115 0.544125 1.448226
v 0.544115 0.485170 1.499072
v 0.886804 0.485170 1.499072
v 0.544115 0.515981 1.513939
v 0.886804 0.515981 1.513939
v 0.681622 0.039449 0.910160
v 0.681622 0.071476 0.910160
v 0.681622 0.039449 0.896354
v 0.681622 0.071476 0.896353
v 0.832497 0.039449 0.910160
v 0.832497 0.071476 0.910160
v 0.832497 0.039449 0.896354
v 0.832497 0.071476 0.896353
v 0.681622 0.039449 0.814211
v 0.681622 0.071476 0.814211
v 0.681622 0.039449 0.800404
v 0.681622 0.071476 0.800404
v 0.832497 0.039449 0.814211
v 0.832497 0.071476 0.814211
v 0.832497 0.039449 0.800404
v 0.832497 0.071476 0.800404
v 0.681622 0.039449 0.515252
v 0.681622 0.071476 0.515252
v 0.681622 0.039449 0.501446
v 0.681622 0.071476 0.501446
v 0.832497 0.039449 0.515252
v 0.832497 0.071476 0.515252
v 0.832497 0.039449 0.501446
v 0.832497 0.071476 0.501446
v 0.681622 0.039449 0.409203
v 0.681622 0.071476 0.409203
v 0.681622 0.039449 0.395397
v 0.681622 0.071476 0.395397
v 0.832497 0.039449 0.409203
v 0.832497 0.071476 0.409203
v 0.832497 0.039449 0.395397
v 0.832497 0.071476 0.395397
v 0.681622 0.039449 0.078300
v 0.681622 0.071476 0.078300
v 0.681622 0.039449 0.064494
v 0.681622 0.071476 0.064494
v 0.832497 0.039449 0.078300
v 0.832497 0.071476 0.078300
v 0.832497 0.039449 0.064494
v 0.832497 0.071476 0.064494
v 0.681622 0.039449 -0.051548
v 0.681622 0.071476 -0.051548
v 0.681622 0.039449 -0.065354
v 0.681622 0.071476 -0.065355
v 0.832497 0.039449 -0.051548
v 0.832497 0.071476 -0.051548
v 0.832497 0.039449 -0.065354
v 0.832497 0.071476 -0.065355
v 0.681622 0.039449 -0.334281
v 0.681622 0.071476 -0.334281
v 0.681622 0.039449 -0.348088
v 0.681622 0.071476 -0.348088
v 0.832497 0.039449 -0.334281
v 0.832497 0.071476 -0.334281
v 0.832497 0.039449 -0.348088
v 0.832497 0.071476 -0.348088
v 0.681622 0.039449 -0.474601
v 0.681622 0.071476 -0.474601
v 0.681622 0.039449 -0.488408
v 0.681622 0.071476 -0.488408
v 0.832497 0.039449 -0.474601
v 0.832497 0.071476 -0.474601
v 0.832497 0.039449 -0.488408
v 0.832497 0.071476 -0.488408
v 0.681622 0.039449 -0.782467
v 0.681622 0.071476 -0.782467
v 0.681622 0.039449 -0.796273
v 0.681622 0.071476 -0.796273
v 0.832497 0.039449 -0.782467
v 0.832497 0.071476 -0.782467
v 0.832497 0.039449 -0.796273
v 0.832497 0.071476 -0.796273
v 0.681622 0.039449 -0.922786
v 0.681622 0.071476 -0.922786
v 0.681622 0.039449 -0.936593
v 0.681622 0.071476 -0.936593
v 0.832497 0.039449 -0.922786
v 0.832497 0.071476 -0.922786
v 0.832497 0.039449 -0.936593
v 0.832497 0.071476 -0.936593
v 0.681622 0.129019 1.248367
v 0.681622 0.156355 1.231679
v 0.681622 0.121825 1.236583
v 0.681622 0.149161 1.219895
v 0.832497 0.129019 1.248367
v 0.832497 0.156355 1.231679
v 0.832497 0.121825 1.236583
v 0.832497 0.149161 1.219895
v 0.681622 0.162955 1.327147
v 0.681622 0.190291 1.310458
v 0.681622 0.155761 1.315362
v 0.681622 0.183097 1.298674
v 0.832497 0.162955 1.327147
v 0.832497 0.190291 1.310458
v 0.832497 0.155761 1.315362
v 0.832497 0.183097 1.298674
v 0.681622 0.167320 -1.269677
v 0.681622 0.189932 -1.246995
v 0.681622 0.177098 -1.279425
v 0.681622 0.199710 -1.256743
v 0.832497 0.167320 -1.269677
v 0.832497 0.189932 -1.246995
v 0.832497 0.177098 -1.279425
v 0.832497 0.199710 -1.256743
vt 0.625000 0.000000
vt 0.375000 0.250000
vt 0.375000 0.000000
vt 0.625000 0.250000
vt 0.375000 0.500000
vt 0.625000 0.500000
vt 0.375000 0.750000
vt 0.625000 0.750000
vt 0.375000 1.000000
vt 0.875000 0.500000
vt 1.000000 0.000000
vt 0.000000 1.000000
vt 0.000000 0.000000
vt 1.000000 1.000000
vt 0.000000 1.000000
vt 1.000000 1.000000
vt 0.000000 1.000000
vt 1.000000 1.000000
vt 0.000000 1.000000
vt 1.000000 1.000000
vt 0.000000 1.000000
vt 1.000000 0.000000
vt 0.000000 0.000000
vt 1.000000 0.000000
vt 0.000000 0.000000
vt 1.000000 0.000000
vt 0.000000 0.000000
vt 1.000000 0.000000
vt 0.000000 1.000000
vt 1.000000 0.000000
vt 0.000000 0.000000
vt 0.000000 1.000000
vt 1.000000 1.000000
vt 0.000000 1.000000
vt 1.000000 1.000000
vt 0.000000 1.000000
vt 1.000000 1.000000
vt 0.000000 1.000000
vt 1.000000 1.000000
vt 1.000000 0.000000
vt 1.000000 0.000000
vt 0.000000 0.000000
vt 1.000000 0.000000
vt 0.000000 0.000000
vt 1.000000 0.000000
vt 0.000000 0.000000
vt 0.000000 1.000000
vt 1.000000 1.000000
vt 1.000000 1.000000
vt 0.000000 0.000000
vt 0.000000 0.000000
vt 0.000000 0.000000
vt 1.000000 1.000000
vt 1.000000 1.000000
vt 1.000000 1.000000
vt 0.000000 1.000000
vt 0.000000 1.000000
vt 0.000000 1.000000
vt 0.000000 1.000000
vt 1.000000 1.000000
vt 1.000000 0.000000
vt 0.000000 0.000000
vt 0.000000 1.000000
vt 1.000000 1.000000
vt 1.000000 1.000000
vt 1.000000 0.000000
vt 0.625000 0.000000
vt 0.375000 0.250000
vt 0.375000 0.000000
vt 0.625000 0.250000
vt 0.375000 0.500000
vt 0.625000 0.750000
vt 0.375000 0.750000
vt 0.375000 1.000000
vt 0.875000 0.500000
vt 0.625000 0.500000
vt 0.625000 0.000000
vt 0.375000 0.250000
vt 0.375000 0.000000
vt 0.625000 0.250000
vt 0.375000 0.500000
vt 0.625000 0.750000
vt 0.375000 0.750000
vt 0.375000 1.000000
vt 0.875000 0.500000
vt 0.625000 0.500000
vt 0.625000 0.000000
vt 0.375000 0.250000
vt 0.375000 0.000000
vt 0.625000 0.250000
vt 0.375000 0.500000
vt 0.625000 0.750000
vt 0.375000 0.750000
vt 0.375000 1.000000
vt 0.875000 0.500000
vt 0.625000 0.500000
vt 0.625000 0.000000
vt 0.375000 0.250000
vt 0.375000 0.000000
vt 0.625000 0.250000
vt 0.375000 0.500000
vt 0.625000 0.750000
vt 0.375000 0.750000
vt 0.375000 1.000000
vt 0.875000 0.500000
vt 0.625000 0.500000
vt 0.625000 0.000000
vt 0.375000 0.250000
vt 0.375000 0.000000
vt 0.625000 0.250000
vt 0.375000 0.500000
vt 0.625000 0.750000
vt 0.375000 0.750000
vt 0.375000 1.000000
vt 0.875000 0.500000
vt 0.625000 0.500000
vt 0.625000 0.000000
vt 0.375000 0.250000
vt 0.375000 0.000000
vt 0.625000 0.250000
vt 0.375000 0.500000
vt 0.625000 0.750000
vt 0.375000 0.750000
vt 0.375000 1.000000
vt 0.875000 0.500000
vt 0.625000 0.500000
vt 0.625000 0.000000
vt 0.375000 0.250000
vt 0.375000 0.000000
vt 0.625000 0.250000
vt 0.375000 0.500000
vt 0.625000 0.750000
vt 0.375000 0.750000
vt 0.375000 1.000000
vt 0.875000 0.500000
vt 0.625000 0.500000
vt 0.625000 0.000000
vt 0.375000 0.250000
vt 0.375000 0.000000
vt 0.625000 0.250000
vt 0.375000 0.500000
vt 0.625000 0.750000
vt 0.375000 0.750000
vt 0.375000 1.000000
vt 0.875000 0.500000
vt 0.625000 0.500000
vt 0.625000 0.000000
vt 0.375000 0.250000
vt 0.375000 0.000000
vt 0.625000 0.250000
vt 0.375000 0.500000
vt 0.625000 0.750000
vt 0.375000 0.750000
vt 0.375000 1.000000
vt 0.875000 0.500000
vt 0.625000 0.500000
vt 0.625000 0.000000
vt 0.375000 0.250000
vt 0.375000 0.000000
vt 0.625000 0.250000
vt 0.375000 0.500000
vt 0.625000 0.750000
vt 0.375000 0.750000
vt 0.375000 1.000000
vt 0.875000 0.500000
vt 0.625000 0.500000
vt 0.625000 0.000000
vt 0.375000 0.250000
vt 0.375000 0.000000
vt 0.625000 0.250000
vt 0.375000 0.500000
vt 0.625000 0.750000
vt 0.375000 0.750000
vt 0.375000 1.000000
vt 0.875000 0.500000
vt 0.625000 0.500000
vt 0.625000 0.000000
vt 0.375000 0.250000
vt 0.375000 0.000000
vt 0.625000 0.250000
vt 0.375000 0.500000
vt 0.625000 0.750000
vt 0.375000 0.750000
vt 0.375000 1.000000
vt 0.875000 0.500000
vt 0.625000 0.500000
vt 0.625000 0.000000
vt 0.375000 0.250000
vt 0.375000 0.000000
vt 0.625000 0.250000
vt 0.375000 0.500000
vt 0.625000 0.500000
vt 0.375000 0.750000
vt 0.625000 0.750000
vt 0.375000 1.000000
vt 0.875000 0.500000
vt 0.625000 1.000000
vt 0.875000 0.750000
vt 0.625000 1.000000
vt 0.875000 0.750000
vt 0.625000 1.000000
vt 0.875000 0.750000
vt 0.625000 1.000000
vt 0.875000 0.750000
vt 0.625000 1.000000
vt 0.875000 0.750000
vt 0.625000 1.000000
vt 0.875000 0.750000
vt 0.625000 1.000000
vt 0.875000 0.750000
vt 0.625000 1.000000
vt 0.875000 0.750000
vt 0.625000 1.000000
vt 0.875000 0.750000
vt 0.625000 1.000000
vt 0.875000 0.750000
vt 0.625000 1.000000
vt 0.875000 0.750000
vt 0.625000 1.000000
vt 0.875000 0.750000
vt 0.625000 1.000000
vt 0.875000 0.750000
vt 0.625000 1.000000
vt 0.875000 0.750000
vn -1.0000 -0.0000 0.0000
vn 0.0000 0.7082 -0.7060
vn 1.0000 0.0000 0.0000
vn 0.0000 -0.7082 0.7060
vn 0.0000 0.7060 0.7082
vn 0.0000 1.0000 0.0000
vn 0.0000 0.9114 0.4116
vn 0.0000 0.7151 0.6990
vn 0.0000 0.0000 1.0000
vn 0.0000 -0.2269 0.9739
vn 0.0000 0.8874 -0.4611
vn 0.0000 0.8971 -0.4419
vn 0.0000 0.2920 -0.9564
vn 0.0000 -0.1532 -0.9882
vn 0.0000 -1.0000 0.0001
vn 0.0000 -0.9128 -0.4085
vn 0.0000 -0.7125 -0.7016
vn 0.0000 -0.0234 -0.9997
vn 0.0000 0.2354 -0.9719
vn 0.0000 -0.8905 0.4550
vn 0.0000 -0.8936 0.4488
vn 0.0000 -0.3044 0.9525
vn 0.0000 0.1652 0.9863
vn 0.0000 1.0000 0.0019
vn 0.0000 0.9466 -0.3224
vn 0.0000 -0.9599 0.2805
vn 0.0000 -1.0000 -0.0009
vn 0.0000 0.9192 0.3937
vn 0.0000 -0.9894 -0.1449
vn 0.0000 0.9891 0.1470
vn 0.0000 0.5384 0.8427
vn 0.0000 -0.4433 -0.8964
vn 0.0000 -0.9183 -0.3960
vn 0.0000 -0.0000 -1.0000
vn 0.0000 -0.5211 -0.8535
vn 0.0000 0.5211 0.8535
vn 0.0000 0.8535 -0.5211
s off
f 2/1/1 3/2/1 1/3/1
f 4/4/2 7/5/2 3/2/2
f 8/6/3 5/7/3 7/5/3
f 6/8/4 1/9/4 5/7/4
f 4/10/5 6/8/5 8/6/5
f 10/11/6 11/12/6 9/13/6
f 12/14/7 13/15/7 11/12/7
f 14/16/8 15/17/8 13/15/8
f 16/18/9 17/19/9 15/17/9
f 18/20/10 19/21/10 17/19/10
f 9/13/11 22/22/11 10/11/11
f 21/23/12 24/24/12 22/22/12
f 23/25/13 26/26/13 24/24/13
f 25/27/14 28/28/14 26/26/14
f 31/29/15 30/30/15 29/31/15
f 33/32/16 32/33/16 31/29/16
f 35/34/17 34/35/17 33/32/17
f 37/36/18 36/37/18 35/34/18
f 39/38/19 38/39/19 37/36/19
f 42/40/20 29/31/20 30/30/20
f 44/41/21 41/42/21 42/40/21
f 46/43/22 43/44/22 44/41/22
f 48/45/23 45/46/23 46/43/23
f 9/13/1 31/29/1 29/31/1
f 10/11/3 32/33/3 12/14/3
f 11/12/1 33/32/1 31/29/1
f 12/14/3 34/35/3 14/16/3
f 15/17/1 33/32/1 13/15/1
f 16/18/3 34/35/3 36/37/3
f 17/19/1 35/34/1 15/17/1
f 18/20/3 36/37/3 38/39/3
f 19/21/1 52/47/1 39/38/1
f 19/21/1 37/36/1 17/19/1
f 20/48/3 38/39/3 40/49/3
f 22/22/3 30/30/3 10/11/3
f 21/23/1 29/31/1 41/42/1
f 24/24/3 42/40/3 22/22/3
f 23/25/1 41/42/1 43/44/1
f 24/24/3 46/43/3 44/41/3
f 23/25/1 45/46/1 25/27/1
f 47/50/1 61/51/1 27/52/1
f 26/26/3 48/45/3 46/43/3
f 25/27/1 47/50/1 27/52/1
f 52/47/24 55/53/24 51/54/24
f 20/48/3 51/54/3 49/55/3
f 39/38/25 51/54/25 40/49/25
f 20/48/26 50/56/26 19/21/26
f 54/57/1 60/58/1 56/59/1
f 50/56/1 56/59/1 52/47/1
f 49/55/27 54/57/27 50/56/27
f 49/55/3 55/53/3 53/60/3
f 64/61/28 60/58/28 63/62/28
f 53/60/29 58/63/29 54/57/29
f 53/60/3 59/64/3 57/65/3
f 56/59/30 59/64/30 55/53/30
f 63/62/1 58/63/1 61/51/1
f 48/45/31 63/62/31 47/50/31
f 48/45/3 62/66/3 64/61/3
f 27/52/32 62/66/32 28/28/32
f 64/61/3 57/65/3 59/64/3
f 61/51/33 57/65/33 62/66/33
f 66/67/1 67/68/1 65/69/1
f 68/70/34 71/71/34 67/68/34
f 71/71/3 70/72/3 69/73/3
f 70/72/9 65/74/9 69/73/9
f 68/75/6 70/72/6 72/76/6
f 74/77/1 75/78/1 73/79/1
f 76/80/34 79/81/34 75/78/34
f 79/81/3 78/82/3 77/83/3
f 78/82/9 73/84/9 77/83/9
f 76/85/6 78/82/6 80/86/6
f 82/87/1 83/88/1 81/89/1
f 84/90/34 87/91/34 83/88/34
f 87/91/3 86/92/3 85/93/3
f 86/92/9 81/94/9 85/93/9
f 84/95/6 86/92/6 88/96/6
f 90/97/1 91/98/1 89/99/1
f 92/100/34 95/101/34 91/98/34
f 95/101/3 94/102/3 93/103/3
f 94/102/9 89/104/9 93/103/9
f 92/105/6 94/102/6 96/106/6
f 98/107/1 99/108/1 97/109/1
f 100/110/34 103/111/34 99/108/34
f 103/111/3 102/112/3 101/113/3
f 102/112/9 97/114/9 101/113/9
f 100/115/6 102/112/6 104/116/6
f 106/117/1 107/118/1 105/119/1
f 108/120/34 111/121/34 107/118/34
f 111/121/3 110/122/3 109/123/3
f 110/122/9 105/124/9 109/123/9
f 108/125/6 110/122/6 112/126/6
f 114/127/1 115/128/1 113/129/1
f 116/130/34 119/131/34 115/128/34
f 119/131/3 118/132/3 117/133/3
f 118/132/9 113/134/9 117/133/9
f 116/135/6 118/132/6 120/136/6
f 122/137/1 123/138/1 121/139/1
f 124/140/34 127/141/34 123/138/34
f 127/141/3 126/142/3 125/143/3
f 126/142/9 121/144/9 125/143/9
f 124/145/6 126/142/6 128/146/6
f 130/147/1 131/148/1 129/149/1
f 132/150/34 135/151/34 131/148/34
f 135/151/3 134/152/3 133/153/3
f 134/152/9 129/154/9 133/153/9
f 132/155/6 134/152/6 136/156/6
f 138/157/1 139/158/1 137/159/1
f 140/160/34 143/161/34 139/158/34
f 143/161/3 142/162/3 141/163/3
f 142/162/9 137/164/9 141/163/9
f 140/165/6 142/162/6 144/166/6
f 146/167/1 147/168/1 145/169/1
f 148/170/35 151/171/35 147/168/35
f 151/171/3 150/172/3 149/173/3
f 150/172/36 145/174/36 149/173/36
f 148/175/37 150/172/37 152/176/37
f 154/177/1 155/178/1 153/179/1
f 156/180/35 159/181/35 155/178/35
f 159/181/3 158/182/3 157/183/3
f 158/182/36 153/184/36 157/183/36
f 156/185/37 158/182/37 160/186/37
f 162/187/1 163/188/1 161/189/1
f 164/190/2 167/191/2 163/188/2
f 168/192/3 165/193/3 167/191/3
f 166/194/4 161/195/4 165/193/4
f 164/196/5 166/194/5 168/192/5
f 2/1/1 4/4/1 3/2/1
f 4/4/2 8/6/2 7/5/2
f 8/6/3 6/8/3 5/7/3
f 6/8/4 2/197/4 1/9/4
f 4/10/5 2/198/5 6/8/5
f 10/11/6 12/14/6 11/12/6
f 12/14/7 14/16/7 13/15/7
f 14/16/8 16/18/8 15/17/8
f 16/18/9 18/20/9 17/19/9
f 18/20/10 20/48/10 19/21/10
f 9/13/11 21/23/11 22/22/11
f 21/23/12 23/25/12 24/24/12
f 23/25/13 25/27/13 26/26/13
f 25/27/14 27/52/14 28/28/14
f 31/29/15 32/33/15 30/30/15
f 33/32/16 34/35/16 32/33/16
f 35/34/17 36/37/17 34/35/17
f 37/36/18 38/39/18 36/37/18
f 39/38/19 40/49/19 38/39/19
f 42/40/20 41/42/20 29/31/20
f 44/41/21 43/44/21 41/42/21
f 46/43/22 45/46/22 43/44/22
f 48/45/23 47/50/23 45/46/23
f 9/13/1 11/12/1 31/29/1
f 10/11/3 30/30/3 32/33/3
f 11/12/1 13/15/1 33/32/1
f 12/14/3 32/33/3 34/35/3
f 15/17/1 35/34/1 33/32/1
f 16/18/3 14/16/3 34/35/3
f 17/19/1 37/36/1 35/34/1
f 18/20/3 16/18/3 36/37/3
f 19/21/1 50/56/1 52/47/1
f 19/21/1 39/38/1 37/36/1
f 20/48/3 18/20/3 38/39/3
f 22/22/3 42/40/3 30/30/3
f 21/23/1 9/13/1 29/31/1
f 24/24/3 44/41/3 42/40/3
f 23/25/1 21/23/1 41/42/1
f 24/24/3 26/26/3 46/43/3
f 23/25/1 43/44/1 45/46/1
f 47/50/1 63/62/1 61/51/1
f 26/26/3 28/28/3 48/45/3
f 25/27/1 45/46/1 47/50/1
f 52/47/24 56/59/24 55/53/24
f 20/48/3 40/49/3 51/54/3
f 39/38/25 52/47/25 51/54/25
f 20/48/26 49/55/26 50/56/26
f 54/57/1 58/63/1 60/58/1
f 50/56/1 54/57/1 56/59/1
f 49/55/27 53/60/27 54/57/27
f 49/55/3 51/54/3 55/53/3
f 64/61/28 59/64/28 60/58/28
f 53/60/29 57/65/29 58/63/29
f 53/60/3 55/53/3 59/64/3
f 56/59/30 60/58/30 59/64/30
f 63/62/1 60/58/1 58/63/1
f 48/45/31 64/61/31 63/62/31
f 48/45/3 28/28/3 62/66/3
f 27/52/32 61/51/32 62/66/32
f 64/61/3 62/66/3 57/65/3
f 61/51/33 58/63/33 57/65/33
f 66/67/1 68/70/1 67/68/1
f 68/70/34 72/76/34 71/71/34
f 71/71/3 72/76/3 70/72/3
f 70/72/9 66/199/9 65/74/9
f 68/75/6 66/200/6 70/72/6
f 74/77/1 76/80/1 75/78/1
f 76/80/34 80/86/34 79/81/34
f 79/81/3 80/86/3 78/82/3
f 78/82/9 74/201/9 73/84/9
f 76/85/6 74/202/6 78/82/6
f 82/87/1 84/90/1 83/88/1
f 84/90/34 88/96/34 87/91/34
f 87/91/3 88/96/3 86/92/3
f 86/92/9 82/203/9 81/94/9
f 84/95/6 82/204/6 86/92/6
f 90/97/1 92/100/1 91/98/1
f 92/100/34 96/106/34 95/101/34
f 95/101/3 96/106/3 94/102/3
f 94/102/9 90/205/9 89/104/9
f 92/105/6 90/206/6 94/102/6
f 98/107/1 100/110/1 99/108/1
f 100/110/34 104/116/34 103/111/34
f 103/111/3 104/116/3 102/112/3
f 102/112/9 98/207/9 97/114/9
f 100/115/6 98/208/6 102/112/6
f 106/117/1 108/120/1 107/118/1
f 108/120/34 112/126/34 111/121/34
f 111/121/3 112/126/3 110/122/3
f 110/122/9 106/209/9 105/124/9
f 108/125/6 106/210/6 110/122/6
f 114/127/1 116/130/1 115/128/1
f 116/130/34 120/136/34 119/131/34
f 119/131/3 120/136/3 118/132/3
f 118/132/9 114/211/9 113/134/9
f 116/135/6 114/212/6 118/132/6
f 122/137/1 124/140/1 123/138/1
f 124/140/34 128/146/34 127/141/34
f 127/141/3 128/146/3 126/142/3
f 126/142/9 122/213/9 121/144/9
f 124/145/6 122/214/6 126/142/6
f 130/147/1 132/150/1 131/148/1
f 132/150/34 136/156/34 135/151/34
f 135/151/3 136/156/3 134/152/3
f 134/152/9 130/215/9 129/154/9
f 132/155/6 130/216/6 134/152/6
f 138/157/1 140/160/1 139/158/1
f 140/160/34 144/166/34 143/161/34
f 143/161/3 144/166/3 142/162/3
f 142/162/9 138/217/9 137/164/9
f 140/165/6 138/218/6 142/162/6
f 146/167/1 148/170/1 147/168/1
f 148/170/35 152/176/35 151/171/35
f 151/171/3 152/176/3 150/172/3
f 150/172/36 146/219/36 145/174/36
f 148/175/37 146/220/37 150/172/37
f 154/177/1 156/180/1 155/178/1
f 156/180/35 160/186/35 159/181/35
f 159/181/3 160/186/3 158/182/3
f 158/182/36 154/221/36 153/184/36
f 156/185/37 154/222/37 158/182/37
f 162/187/1 164/190/1 163/188/1
f 164/190/2 168/192/2 167/191/2
f 168/192/3 166/194/3 165/193/3
f 166/194/4 162/223/4 161/195/4
f 164/196/5 162/224/5 166/194/5
