# Blender v2.83.3 OBJ File: 'm26.blend'
# www.blender.org
o left_track_Cube.002
v 0.171170 -0.279000 1.083028
v -0.171519 -0.279000 1.083028
v 0.171170 -0.279000 -1.095916
v -0.171519 -0.279000 -1.095916
v 0.171170 -0.241580 -1.178773
v -0.171519 -0.241580 -1.178773
v 0.171170 0.048421 -1.475456
v -0.171519 0.048421 -1.475456
v 0.171170 0.123260 -1.475456
v -0.171519 0.123260 -1.475456
v 0.171170 0.235586 -1.449292
v -0.171519 0.235586 -1.449292
v 0.171170 -0.208170 1.219341
v -0.171519 -0.208170 1.219341
v 0.171170 -0.074529 1.490633
v -0.171519 -0.074529 1.490633
v 0.171170 0.052430 1.529388
v -0.171519 0.052430 1.529388
v 0.171170 0.119039 1.519065
v -0.171519 0.119039 1.519065
v 0.171170 -0.307928 1.092108
v -0.171519 -0.307928 1.092108
v 0.171170 -0.308152 -1.104010
v -0.171519 -0.308152 -1.104010
v 0.171170 -0.265304 -1.199763
v -0.171519 -0.265304 -1.199763
v 0.171170 0.037712 -1.507491
v -0.171519 0.037712 -1.507491
v 0.171170 0.126341 -1.509569
v -0.171519 0.126341 -1.509569
v 0.171170 0.252271 -1.479061
v -0.171519 0.252271 -1.479061
v 0.171170 -0.234138 1.236514
v -0.171519 -0.234138 1.236514
v 0.171170 -0.092909 1.517737
v -0.171519 -0.092909 1.517737
v 0.171170 0.050689 1.563625
v -0.171519 0.050689 1.563625
v 0.171170 0.134481 1.549592
v -0.171519 0.134481 1.549592
v -0.171519 0.272601 -1.322611
v 0.171170 0.272601 -1.322611
v -0.171519 0.306591 -1.319570
v 0.171170 0.306591 -1.319570
v -0.171519 0.270591 0.870424
v 0.171170 0.270591 0.870424
v -0.171519 0.302504 0.882512
v 0.171170 0.302504 0.882512
v -0.171519 0.188347 1.432107
v 0.171170 0.188347 1.432107
v -0.171519 0.218426 1.448226
v 0.171170 0.218426 1.448226
v 0.171170 0.159471 1.499072
v -0.171519 0.159471 1.499072
v 0.171170 0.190282 1.513939
v -0.171519 0.190282 1.513939
vt -1.245968 0.992242
vt 3.141675 0.003799
vt 3.181814 0.993273
vt -1.467578 0.992190
vt -1.286106 0.002769
vt -2.483057 0.991955
vt -1.507717 0.002717
vt -2.589534 0.991930
vt -2.523195 0.002481
vt -2.696178 0.991905
vt -2.629673 0.002456
vt 3.317903 0.003841
vt 3.679051 0.003923
vt 3.358042 0.993314
vt -2.613167 0.008297
vt -2.716298 0.999521
vt -2.716432 0.008514
vt -2.496959 0.008057
vt -2.613032 0.999305
vt -2.167570 0.011014
vt 2.199881 0.999692
vt -2.163160 1.002031
vt 2.195471 0.008672
vt 2.450338 0.999560
vt 2.445927 0.008540
vt 3.487559 0.999002
vt 3.483149 0.007982
vt 3.616231 0.998933
vt 3.611821 0.007913
vt 3.732579 0.998873
vt -2.350788 0.011113
vt -2.346378 1.002133
vt -2.711076 0.011303
vt -2.715486 -0.979729
vt -2.602470 0.011235
vt -2.606880 -0.979785
vt -2.457998 0.011157
vt 0.477198 0.418588
vt 0.532884 0.417462
vt 0.533179 0.418755
vt 0.628937 0.424722
vt 0.690070 0.426850
vt 0.628583 0.425835
vt 0.536083 0.419370
vt 0.535953 0.420421
vt 0.625378 0.426307
vt 0.625497 0.427219
vt 0.548575 0.433309
vt 0.611331 0.438110
vt 0.549214 0.432837
vt 0.549866 0.436630
vt 0.609836 0.440956
vt 0.610641 0.437687
vt 0.549022 0.444751
vt 0.551130 0.441611
vt 0.552183 0.442353
vt 0.550795 0.436769
vt 0.608330 0.445240
vt 0.608811 0.441057
vt 0.690904 0.425754
vt 0.692501 0.429607
vt 0.474917 0.421720
vt 0.476466 0.417304
vt 0.693505 0.428627
vt 0.697487 0.434815
vt 0.470252 0.427628
vt 0.474028 0.420567
vt 0.697045 0.439611
vt 0.696044 0.439662
vt 0.470536 0.433178
vt 0.471445 0.433258
vt 0.474070 0.438009
vt 0.472341 0.436896
vt 0.472859 0.436213
vt 0.694975 0.442791
vt 0.694422 0.442190
vt -0.898549 0.010325
vt 3.478850 -0.983038
vt 3.483261 0.007982
vt 0.610572 0.448000
vt 0.607156 0.445860
vt 3.720223 -0.983168
vt 3.724634 0.007852
vt 3.472507 0.986578
vt 3.675718 -0.004851
vt 3.675853 0.986153
vt 0.476393 0.440628
vt 0.492137 0.442986
vt 0.492377 0.444401
vt 0.548514 0.443243
vt -0.967550 0.995863
vt 3.472372 -0.004425
vt 0.611165 0.446706
vt 0.672794 0.448871
vt -2.144169 -0.980033
vt -2.309506 0.011078
vt -2.313916 -0.979941
vt -2.221702 0.998482
vt -0.967685 0.004858
vt 0.673090 0.447651
vt 0.690437 0.445937
vt -2.139759 0.010987
vt -0.902960 -0.980698
vt 0.476288 0.439295
vt 0.474219 0.439374
vt -2.462408 -0.979866
vt 0.693050 0.443718
vt -2.398647 0.007851
vt -2.496825 0.999061
vt 0.692854 0.444897
vt 0.690583 0.444785
vt -2.221836 0.007483
vt -2.398512 0.998852
vt -2.736317 0.002431
vt 3.719190 0.993397
vt 3.728169 0.007850
vt -2.706666 1.002326
vt 0.698619 0.434129
vt 0.469239 0.426811
vn 0.0000 1.0000 -0.0000
vn 0.0000 0.9114 0.4116
vn 0.0000 0.7151 0.6990
vn 0.0000 0.0000 1.0000
vn 0.0000 -0.2269 0.9739
vn 0.0000 0.8874 -0.4611
vn 0.0000 0.8971 -0.4419
vn 0.0000 0.2920 -0.9564
vn 0.0000 -0.1532 -0.9882
vn 0.0000 -1.0000 0.0001
vn 0.0000 -0.9128 -0.4085
vn 0.0000 -0.7125 -0.7016
vn 0.0000 -0.0234 -0.9997
vn 0.0000 0.2354 -0.9719
vn 0.0000 -0.8905 0.4550
vn 0.0000 -0.8936 0.4488
vn 0.0000 -0.3044 0.9525
vn 0.0000 0.1652 0.9863
vn 1.0000 -0.0000 0.0000
vn -1.0000 0.0000 0.0000
vn 0.0000 1.0000 0.0019
vn 0.0000 0.9466 -0.3224
vn 0.0000 -0.9599 0.2805
vn 0.0000 -1.0000 -0.0009
vn 0.0000 0.9192 0.3937
vn 0.0000 -0.9894 -0.1449
vn 0.0000 0.9891 0.1470
vn 0.0000 0.5384 0.8427
vn 0.0000 -0.4433 -0.8964
vn 0.0000 -0.9183 -0.3960
s off
f 3/1/1 2/2/1 1/3/1
f 5/4/2 4/5/2 3/1/2
f 7/6/3 6/7/3 5/4/3
f 9/8/4 8/9/4 7/6/4
f 11/10/5 10/11/5 9/8/5
f 14/12/6 1/3/6 2/2/6
f 16/13/7 13/14/7 14/12/7
f 18/15/8 15/16/8 16/17/8
f 20/18/9 17/19/9 18/15/9
f 22/20/10 23/21/10 21/22/10
f 24/23/11 25/24/11 23/21/11
f 26/25/12 27/26/12 25/24/12
f 28/27/13 29/28/13 27/26/13
f 30/29/14 31/30/14 29/28/14
f 21/22/15 34/31/15 22/20/15
f 33/32/16 36/33/16 34/31/16
f 35/34/17 38/35/17 36/33/17
f 37/36/18 40/37/18 38/35/18
f 1/38/19 23/39/19 3/40/19
f 24/41/20 2/42/20 4/43/20
f 3/40/19 25/44/19 5/45/19
f 26/46/20 4/43/20 6/47/20
f 25/44/19 7/48/19 5/45/19
f 8/49/20 26/46/20 6/47/20
f 27/50/19 9/51/19 7/48/19
f 10/52/20 28/53/20 8/49/20
f 44/54/19 11/55/19 31/56/19
f 29/57/19 11/55/19 9/51/19
f 12/58/20 30/59/20 10/52/20
f 22/60/20 14/61/20 2/42/20
f 13/62/19 21/63/19 1/38/19
f 34/64/20 16/65/20 14/61/20
f 15/66/19 33/67/19 13/62/19
f 16/65/20 38/68/20 18/69/20
f 37/70/19 15/66/19 17/71/19
f 53/72/19 39/73/19 19/74/19
f 18/69/20 40/75/20 20/76/20
f 39/73/19 17/71/19 19/74/19
f 47/77/21 44/78/21 43/79/21
f 12/58/20 43/80/20 32/81/20
f 43/79/22 31/82/22 32/83/22
f 42/84/23 12/85/23 11/86/23
f 52/87/19 46/88/19 48/89/19
f 48/89/19 42/90/19 44/54/19
f 46/91/24 41/92/24 42/84/24
f 41/93/20 47/94/20 43/80/20
f 52/95/25 56/96/25 55/97/25
f 50/98/26 45/99/26 46/91/26
f 45/100/20 51/101/20 47/94/20
f 51/102/27 48/103/27 47/77/27
f 50/104/19 55/105/19 53/72/19
f 55/97/28 40/37/28 39/106/28
f 40/75/20 54/107/20 20/76/20
f 54/108/29 19/109/29 20/18/29
f 56/110/20 49/111/20 54/107/20
f 49/112/30 53/113/30 54/108/30
f 3/1/1 4/5/1 2/2/1
f 5/4/2 6/7/2 4/5/2
f 7/6/3 8/9/3 6/7/3
f 9/8/4 10/11/4 8/9/4
f 11/10/5 12/114/5 10/11/5
f 14/12/6 13/14/6 1/3/6
f 16/13/7 15/115/7 13/14/7
f 18/15/8 17/19/8 15/16/8
f 20/18/9 19/109/9 17/19/9
f 22/20/10 24/23/10 23/21/10
f 24/23/11 26/25/11 25/24/11
f 26/25/12 28/27/12 27/26/12
f 28/27/13 30/29/13 29/28/13
f 30/29/14 32/116/14 31/30/14
f 21/22/15 33/32/15 34/31/15
f 33/32/16 35/117/16 36/33/16
f 35/34/17 37/36/17 38/35/17
f 37/36/18 39/106/18 40/37/18
f 1/38/19 21/63/19 23/39/19
f 24/41/20 22/60/20 2/42/20
f 3/40/19 23/39/19 25/44/19
f 26/46/20 24/41/20 4/43/20
f 25/44/19 27/50/19 7/48/19
f 8/49/20 28/53/20 26/46/20
f 27/50/19 29/57/19 9/51/19
f 10/52/20 30/59/20 28/53/20
f 44/54/19 42/90/19 11/55/19
f 29/57/19 31/56/19 11/55/19
f 12/58/20 32/81/20 30/59/20
f 22/60/20 34/64/20 14/61/20
f 13/62/19 33/67/19 21/63/19
f 34/64/20 36/118/20 16/65/20
f 15/66/19 35/119/19 33/67/19
f 16/65/20 36/118/20 38/68/20
f 37/70/19 35/119/19 15/66/19
f 53/72/19 55/105/19 39/73/19
f 18/69/20 38/68/20 40/75/20
f 39/73/19 37/70/19 17/71/19
f 47/77/21 48/103/21 44/78/21
f 12/58/20 41/93/20 43/80/20
f 43/79/22 44/78/22 31/82/22
f 42/84/23 41/92/23 12/85/23
f 52/87/19 50/104/19 46/88/19
f 48/89/19 46/88/19 42/90/19
f 46/91/24 45/99/24 41/92/24
f 41/93/20 45/100/20 47/94/20
f 52/95/25 51/102/25 56/96/25
f 50/98/26 49/112/26 45/99/26
f 45/100/20 49/111/20 51/101/20
f 51/102/27 52/95/27 48/103/27
f 50/104/19 52/87/19 55/105/19
f 55/97/28 56/96/28 40/37/28
f 40/75/20 56/110/20 54/107/20
f 54/108/29 53/113/29 19/109/29
f 56/110/20 51/101/20 49/111/20
f 49/112/30 50/98/30 53/113/30
