# Blender v2.83.3 OBJ File: 'm26.blend'
# www.blender.org
o turret
v 0.500425 0.809368 -0.012381
v 0.500425 0.812726 -0.669747
v 0.500425 0.812106 -0.548431
v 0.500425 0.811538 -0.437244
v 0.500425 0.811270 -0.384800
v 0.500425 0.812966 0.194662
v 0.532133 0.868886 0.407452
v 0.532133 0.895041 0.567162
v -0.516509 0.804062 -0.012381
v -0.516509 0.807419 -0.669747
v -0.516509 0.806800 -0.548431
v -0.516509 0.806232 -0.437244
v -0.516509 0.805964 -0.384800
v -0.516509 0.807660 0.194662
v -0.548216 0.863580 0.407452
v -0.548216 0.889735 0.567162
v 0.002571 1.252668 0.567162
v 0.002571 1.221344 0.680476
v 0.002571 0.919308 0.678708
v 0.002571 0.821887 -0.669747
v 0.002571 0.822195 -0.729904
v 0.002571 1.135224 -0.728135
v 0.002571 1.293371 -0.382880
v 0.002571 1.290972 -0.012381
v 0.002571 0.822128 0.194662
v 0.002571 0.818530 -0.012381
v 0.002571 0.821268 -0.548431
v 0.002571 1.214246 -0.666358
v 0.002571 1.252226 -0.545667
v 0.002571 0.820700 -0.437244
v 0.002571 1.260262 -0.435054
v 0.002571 0.820432 -0.384800
v 0.002571 1.279578 0.194662
v 0.002571 0.864305 0.407452
v 0.002571 1.264203 0.407452
v 0.002571 0.890460 0.567162
v 0.251498 0.816119 -0.437244
v 0.251498 0.815851 -0.384800
v 0.251498 0.817307 -0.669747
v 0.251498 0.816687 -0.548431
v 0.272177 1.257332 0.407452
v 0.272177 1.272707 0.194662
v 0.277002 1.221344 0.664974
v 0.277002 1.252668 0.567162
v 0.277002 1.214246 -0.666358
v 0.277002 1.135224 -0.728135
v 0.267352 0.866595 0.407452
v 0.267352 0.892751 0.567162
v 0.277002 0.919308 0.663206
v 0.272177 1.286500 -0.382880
v 0.272177 1.253391 -0.435054
v 0.251498 0.817614 -0.729904
v 0.251498 0.813949 -0.012381
v 0.277002 1.252226 -0.545667
v 0.272177 1.284101 -0.012381
v 0.251498 0.817547 0.194662
v -0.256969 0.813466 -0.437244
v -0.256969 0.813198 -0.384800
v -0.256969 0.814653 -0.669747
v -0.256969 0.814034 -0.548431
v -0.249206 1.256059 0.407452
v -0.249206 1.271433 0.194662
v -0.254031 1.220070 0.664974
v -0.254031 1.251394 0.567162
v -0.254031 1.212972 -0.666358
v -0.254031 1.133950 -0.728135
v -0.272823 0.863942 0.407452
v -0.272823 0.890097 0.567162
v -0.271860 0.919308 0.663206
v -0.249206 1.285226 -0.382880
v -0.249206 1.252118 -0.435054
v -0.256969 0.814961 -0.729904
v -0.256969 0.811296 -0.012381
v -0.254031 1.250952 -0.545667
v -0.249206 1.282827 -0.012381
v -0.256969 0.814894 0.194662
v 0.529038 1.043299 -0.012381
v 0.533863 1.013486 -0.668053
v 0.533863 1.032166 -0.547049
v 0.529038 1.029029 -0.436149
v 0.529038 1.045449 -0.383840
v 0.529038 1.039401 0.194662
v 0.544892 1.059673 0.407452
v 0.549717 1.073854 0.567162
v 0.264250 0.976419 -0.729020
v 0.277002 1.070326 0.664090
v -0.518122 1.039372 -0.012381
v -0.522947 1.009559 -0.668053
v -0.522947 1.028239 -0.547049
v -0.518122 1.025102 -0.436149
v -0.518122 1.041523 -0.383840
v -0.518122 1.035474 0.194662
v -0.533976 1.055747 0.407452
v -0.538801 1.069928 0.567162
v -0.255500 0.974455 -0.729020
v -0.262946 1.069689 0.664090
v 0.002578 0.975430 -0.729020
v 0.003070 1.090781 -0.876263
v 0.239001 1.090781 -0.876263
v -0.217534 1.089686 -0.876263
v -0.218797 0.952567 -0.877023
v 0.228038 0.954255 -0.877023
v 0.003076 0.953405 -0.877023
v -0.491623 1.212877 0.601599
v -0.477358 1.218864 0.614935
v -0.531580 0.911433 0.600914
v -0.513014 0.919308 0.613166
v -0.477390 1.132744 -0.728135
v -0.490166 1.134257 -0.714786
v -0.483261 0.808105 -0.729904
v -0.500077 0.807663 -0.717383
v -0.467739 1.275123 -0.012381
v -0.481988 1.260197 -0.012381
v -0.477389 1.211766 -0.666358
v -0.491651 1.196612 -0.666485
v -0.477386 1.249746 -0.545667
v -0.491477 1.234778 -0.545760
v -0.467742 1.244413 -0.435054
v -0.482153 1.229238 -0.435128
v -0.482001 1.262478 -0.382940
v -0.467741 1.277521 -0.382880
v -0.467735 1.263729 0.194662
v -0.482038 1.248867 0.194662
v -0.467730 1.248355 0.407452
v -0.483490 1.233809 0.407452
v -0.493000 1.235918 0.567162
v -0.477367 1.250188 0.567162
v -0.513256 1.069276 0.602079
v -0.495183 1.069085 0.614050
v -0.506461 0.978289 -0.716491
v -0.480326 0.970426 -0.729020
v 0.551433 1.216346 0.603690
v 0.540934 1.221344 0.614935
v 0.540935 0.919308 0.613166
v 0.547129 0.913896 0.602906
v 0.549428 1.136679 -0.717164
v 0.540885 1.135224 -0.728135
v 0.500425 0.812976 -0.718689
v 0.489893 0.813227 -0.729904
v 0.540702 1.264994 -0.012381
v 0.531278 1.277498 -0.012381
v 0.549824 1.201576 -0.666465
v 0.540897 1.214246 -0.666358
v 0.549983 1.239708 -0.545746
v 0.540905 1.252226 -0.545667
v 0.540599 1.234065 -0.435117
v 0.531266 1.246788 -0.435054
v 0.531273 1.279896 -0.382880
v 0.540694 1.267295 -0.382931
v 0.540670 1.253649 0.194662
v 0.531281 1.266104 0.194662
v 0.541474 1.238213 0.407452
v 0.531283 1.250729 0.407452
v 0.540932 1.252668 0.567162
v 0.550770 1.240383 0.567162
v 0.540935 1.070326 0.614051
v 0.557114 1.071150 0.603101
v 0.523319 0.974221 -0.729020
v 0.533863 0.981352 -0.717830
v 0.002857 1.281583 -0.012880
v 0.002857 1.270189 0.194164
v -0.248920 1.273438 -0.012880
v -0.248920 1.262044 0.194164
v -0.467452 1.265734 -0.012880
v -0.467449 1.254340 0.194164
vt 0.026152 0.500000
vt 0.500000 0.759517
vt 0.500000 0.500000
vt 0.500000 0.336361
vt 1.000000 0.500000
vt 1.000000 0.336361
vt 0.500000 0.958080
vt 1.000000 0.873542
vt 0.500000 0.873542
vt 0.500000 0.796062
vt 1.000000 0.796062
vt 1.000000 0.759517
vt 1.000000 0.168180
vt 0.500000 0.168180
vt 1.000000 0.041952
vt 0.500000 0.041952
vt 1.000000 0.041952
vt 1.000000 0.000000
vt 1.000000 0.796063
vt 1.000000 0.759517
vt 1.000000 0.759517
vt 1.000000 0.958080
vt 1.000000 0.873542
vt 1.000000 0.873542
vt 0.000000 0.336361
vt 0.000000 0.168180
vt 0.000000 0.336361
vt 0.000000 0.000000
vt 0.000000 0.041952
vt 0.000000 0.041952
vt 0.000000 0.958080
vt 0.000000 1.000000
vt 0.000000 1.000000
vt 1.000000 0.168180
vt 1.000000 0.041952
vt 0.500000 0.000000
vt 1.000000 0.000000
vt 0.000000 0.000000
vt 0.000000 0.759517
vt 0.000000 0.796063
vt 0.000000 0.796062
vt 1.000000 1.000000
vt 1.000000 0.958080
vt 1.000000 0.500000
vt 1.000000 0.500000
vt 0.000000 0.873542
vt 0.000000 0.958080
vt 0.000000 0.168180
vt 1.000000 0.796062
vt 0.000000 0.500000
vt 0.000000 0.759517
vt 0.000000 0.500000
vt 1.000000 0.336361
vt 1.000000 0.336361
vt 1.000000 0.168180
vt 0.000000 0.873542
vt 0.030780 0.500000
vt 0.500000 0.759517
vt 0.030997 0.759517
vt 0.500000 0.336361
vt 1.000000 0.500000
vt 0.500000 0.500000
vt 1.000000 0.873542
vt 0.500000 0.958080
vt 0.500000 0.873542
vt 0.500000 0.796062
vt 1.000000 0.759517
vt 1.000000 0.168180
vt 0.500000 0.168180
vt 1.000000 0.041952
vt 0.500000 0.041952
vt 1.000000 0.000000
vt 1.000000 0.041952
vt 1.000000 0.796062
vt 1.000000 0.759517
vt 1.000000 0.958080
vt 1.000000 0.873542
vt 0.000000 0.336361
vt 0.000000 0.168180
vt 0.000000 0.000000
vt 0.000000 0.041952
vt 0.000000 0.958080
vt 0.000000 1.000000
vt 1.000000 0.168180
vt 1.000000 0.000000
vt 0.500000 0.000000
vt 0.000000 0.759517
vt 0.000000 0.796062
vt 1.000000 1.000000
vt 1.000000 0.500000
vt 0.000000 0.873542
vt 0.000000 0.500000
vt 0.000000 0.336361
vt 0.000000 0.336361
vt 1.000000 0.336361
vt 0.028634 0.796063
vt 0.026333 0.759517
vt 0.000000 0.759517
vt 0.031553 0.958080
vt 0.028442 0.873542
vt 0.033906 0.992459
vt 1.000000 1.000000
vt 0.500000 1.000000
vt 0.026911 0.336361
vt 0.032099 0.168180
vt 1.000000 0.009356
vt 0.500000 0.009796
vt 0.500000 1.000000
vt 0.000000 0.000000
vt 0.034350 0.041952
vt 1.000000 0.958080
vt 0.033663 0.796063
vt 1.000000 0.336361
vt 0.000000 0.759517
vt 0.000000 0.500000
vt 0.037316 0.958080
vt 0.033645 0.873542
vt 0.039682 0.991074
vt 1.000000 0.796062
vt 1.000000 1.000000
vt 0.500000 1.000000
vt 0.031652 0.336361
vt 0.036700 0.168180
vt 1.000000 0.011172
vt 0.500000 0.010711
vt 0.500000 1.000000
vt 0.000000 1.000000
vt 0.000000 0.000000
vt 0.500000 0.000000
vt 0.039411 0.041952
vt 1.000000 0.958080
vt 0.500000 0.000000
vt 0.500000 0.992306
vt 0.000000 0.041952
vt 0.000000 0.168180
vt 0.000000 0.336361
vt 0.000000 0.796063
vt 0.000000 0.873542
vt 0.000000 0.958080
vt 0.000000 0.500000
vt 0.000000 1.000000
vt 0.500000 0.991386
vt 0.000000 0.041952
vt 0.000000 0.168180
vt 0.000000 0.336361
vt 0.000000 0.796063
vt 0.000000 0.873542
vt 0.000000 0.958080
vt 0.000000 0.336361
vt 0.000000 1.000000
vt 0.500000 1.000000
vt 0.500000 1.000000
vt 1.000000 1.000000
vt 0.000000 1.000000
vt 0.500000 1.000000
vt 0.000000 1.000000
vt 0.500000 1.000000
vt 0.042988 0.011447
vt 1.000000 0.991275
vt 0.037055 0.009805
vt 0.034350 0.041952
vt 1.000000 0.000000
vt 1.000000 0.992185
vt 0.000000 0.500000
vt 0.000000 0.500000
vt 0.000000 0.500000
vn -0.9986 0.0525 0.0003
vn -0.9921 0.1254 -0.0022
vn -0.9884 0.1503 -0.0232
vn -0.9915 0.1304 0.0007
vn -0.9919 0.1213 -0.0381
vn -0.9926 0.1214 0.0006
vn -0.9955 0.0666 0.0678
vn -0.9950 0.0978 0.0214
vn -0.0083 0.9640 -0.2657
vn 0.0184 0.9998 0.0051
vn -0.0254 -0.9971 -0.0720
vn 0.0000 -0.9524 -0.3050
vn 0.0000 -0.6159 0.7878
vn -0.0085 0.9868 -0.1616
vn -0.0564 0.0058 -0.9984
vn -0.0215 -0.8441 0.5357
vn 0.0000 -0.9539 0.3002
vn -0.0150 0.9641 -0.2651
vn -0.0255 -0.9997 -0.0065
vn -0.0254 -0.9982 -0.0549
vn 0.0184 0.9997 -0.0174
vn -0.0084 0.9746 -0.2240
vn 0.0000 -0.9999 0.0105
vn 0.9869 -0.1613 -0.0010
vn 1.0000 0.0069 0.0001
vn 0.9996 0.0291 -0.0045
vn 0.9987 0.0293 -0.0426
vn 1.0000 0.0069 -0.0022
vn 1.0000 0.0068 0.0000
vn 0.9940 -0.0737 0.0811
vn 0.9980 -0.0522 0.0348
vn -0.0011 0.8416 -0.5402
vn -0.0279 0.9996 0.0051
vn 0.0322 -0.9969 -0.0720
vn 0.0047 -0.9523 -0.3050
vn 0.0031 -0.6159 0.7878
vn -0.0013 0.9869 -0.1616
vn 0.0564 0.0025 -0.9984
vn 0.0273 -0.8440 0.5356
vn 0.0047 -0.9539 0.3002
vn 0.0050 -0.9996 -0.0290
vn -0.0013 0.9567 -0.2910
vn 0.0323 -0.9995 -0.0065
vn 0.0017 -0.0530 0.9986
vn -0.0279 0.9995 -0.0174
vn -0.0013 0.9744 -0.2247
vn 0.0050 -0.9999 0.0103
vn -0.9981 0.0526 -0.0317
vn -0.0084 0.9674 -0.2530
vn -0.9967 0.0776 -0.0232
vn -0.9912 0.0850 -0.1010
vn -0.9975 0.0565 -0.0418
vn -0.0001 -0.0056 1.0000
vn -0.9998 -0.0191 0.0024
vn -0.9767 0.0618 0.2057
vn -0.0000 -0.0056 1.0000
vn -0.1863 0.0058 -0.9825
vn -0.9983 0.0063 0.0580
vn 0.9819 -0.1609 0.0996
vn -0.0013 0.9671 -0.2543
vn 0.0352 -0.9994 -0.0065
vn 0.9875 -0.1507 0.0462
vn 0.9574 -0.1622 0.2388
vn -0.0303 0.9995 0.0051
vn 0.9846 -0.1495 -0.0905
vn 0.0002 -0.0055 1.0000
vn 0.9620 -0.2728 -0.0127
vn 0.8031 -0.0889 -0.5892
vn 0.0001 -0.0055 1.0000
vn 0.2106 -0.0193 -0.9774
vn 0.9622 -0.2655 0.0608
vn -0.9807 0.1642 -0.1060
vn 0.0000 -0.8363 -0.5483
vn -0.0255 -0.9993 -0.0284
vn -0.9985 0.0542 0.0010
vn -0.0215 -0.8442 0.5357
vn 0.0000 -0.9988 -0.0491
vn 0.2031 -0.0184 -0.9790
vn 0.9516 0.0277 0.3060
vn 0.0045 -0.8363 -0.5483
vn 0.0054 -0.9999 0.0118
vn 0.0351 -0.9968 -0.0720
vn 0.9868 -0.1615 -0.0086
vn 0.0298 -0.8440 0.5356
vn 0.0054 -0.9988 -0.0486
vn 0.0052 -0.9539 0.3002
vn 0.0019 -0.0530 0.9986
vn 0.0033 -0.6159 0.7878
vn -0.9711 0.0767 0.2261
vn -0.0001 -0.0058 1.0000
vn 0.0000 -0.0055 1.0000
vn -0.0037 0.9891 -0.1472
vn 0.0000 -0.9578 0.2874
vn 0.0048 -0.9578 0.2874
vn 0.9702 -0.0103 0.2421
vn 0.5979 -0.6550 -0.4621
vn 0.5508 -0.0607 -0.8324
vn 0.4291 -0.0127 0.9032
vn 0.7258 -0.6879 -0.0045
vn 0.6071 -0.4775 0.6351
vn 0.7109 -0.6709 0.2111
vn 0.7251 -0.6820 -0.0953
vn 0.6634 -0.6320 0.4006
vn 0.7228 -0.6900 -0.0380
vn 0.7196 -0.6926 -0.0501
vn 0.6774 -0.7340 0.0493
vn 0.6983 -0.0789 -0.7115
vn 0.5974 -0.0152 0.8018
vn 0.9421 -0.2600 -0.2116
vn -0.7254 -0.5810 -0.3691
vn -0.5606 0.0048 -0.8281
vn -0.7499 0.0782 0.6569
vn -0.8009 -0.5988 -0.0039
vn -0.6735 -0.4525 0.5845
vn -0.8033 -0.5676 0.1803
vn -0.8059 -0.5838 -0.0981
vn -0.7532 -0.5542 0.3543
vn -0.7981 -0.6016 -0.0331
vn -0.7978 -0.6014 -0.0434
vn -0.7743 -0.6305 0.0544
vn -0.7300 0.0040 -0.6834
vn -0.7196 0.1457 0.6790
vn -0.9793 -0.0391 0.1986
vn 0.0323 -0.9980 -0.0549
vn 0.0352 -0.9979 -0.0549
vn 0.9995 0.0304 0.0017
vn -0.0019 0.0530 -0.9986
vn -0.0017 0.0530 -0.9986
vn -0.9995 -0.0304 -0.0017
vn -0.9926 0.1214 0.0023
vn -0.9864 0.1643 0.0008
vn -0.9879 0.1504 -0.0387
vn -0.9926 0.1213 0.0007
vn -0.9856 0.1245 0.1141
vn -0.9977 0.0667 -0.0109
vn -0.0857 0.8879 -0.4520
vn 0.0000 0.8845 -0.4666
vn -0.0150 -0.9637 -0.2664
vn 0.0000 -0.9996 -0.0292
vn -0.0084 0.9681 -0.2504
vn 0.0180 0.9808 -0.1944
vn -0.0254 -0.9970 0.0724
vn 0.9869 -0.1615 -0.0009
vn 1.0000 0.0071 -0.0001
vn 0.9995 0.0318 0.0002
vn 1.0000 0.0074 0.0000
vn 1.0000 0.0069 0.0000
vn 0.9893 0.0070 0.1456
vn 0.9972 -0.0739 0.0121
vn 0.0000 0.8412 -0.5408
vn 0.0604 0.9548 -0.2910
vn 0.0209 -0.9636 -0.2664
vn 0.0603 0.0023 -0.9982
vn 0.0583 0.0058 -0.9983
vn 0.0141 0.9680 -0.2504
vn -0.0273 0.9806 -0.1944
vn 0.0322 -0.9969 0.0724
vn -0.9983 0.0564 -0.0177
vn 0.0179 0.9740 -0.2258
vn -0.9963 0.0847 -0.0131
vn -0.9929 0.0998 -0.0644
vn -0.9937 0.0777 -0.0803
vn -0.9961 0.0541 0.0691
vn -0.9346 0.0919 0.3436
vn -0.9993 -0.0191 0.0319
vn 0.9833 -0.1735 0.0545
vn -0.0271 0.9736 -0.2264
vn 0.9859 -0.1652 0.0255
vn 0.9204 -0.1003 0.3780
vn -0.0303 0.9995 -0.0053
vn -0.0279 0.9996 -0.0040
vn 0.9837 -0.1731 -0.0477
vn 0.9821 -0.1661 0.0890
vn 0.9077 -0.0474 -0.4169
vn 0.2187 -0.0072 -0.9758
vn 0.9607 -0.2724 0.0532
vn -0.9808 0.1948 0.0010
vn -0.0577 -0.9508 -0.3045
vn 0.0000 -0.9999 0.0121
vn -0.9986 0.0525 0.0027
vn -0.0255 -0.9996 0.0094
vn 0.2106 -0.0067 -0.9775
vn 0.9448 0.0336 0.3261
vn 0.0733 -0.9498 -0.3042
vn 0.0352 -0.9990 -0.0281
vn 0.9860 -0.1667 -0.0031
vn 0.0352 -0.9993 0.0090
vn 0.0000 -0.0058 1.0000
vn 0.6536 -0.6328 -0.4151
vn 0.5673 -0.0598 -0.8213
vn 0.7154 -0.0823 0.6939
vn 0.7233 -0.6905 -0.0043
vn 0.5435 -0.5170 0.6613
vn 0.7111 -0.6707 0.2111
vn 0.7220 -0.6852 -0.0960
vn 0.6642 -0.6312 0.4005
vn 0.7200 -0.6929 -0.0377
vn 0.6775 -0.7340 -0.0473
vn 0.6733 -0.7376 0.0498
vn 0.5496 -0.0856 -0.8310
vn 0.4351 0.0116 0.9003
vn 0.7999 -0.1225 -0.5875
vn -0.7018 -0.5957 -0.3906
vn -0.8419 0.0541 -0.5368
vn -0.7916 0.0767 0.6062
vn -0.7986 -0.6019 -0.0037
vn -0.6540 -0.4659 0.5960
vn -0.7955 -0.5780 0.1819
vn -0.8026 -0.5882 -0.0989
vn -0.7478 -0.5605 0.3558
vn -0.7981 -0.6017 -0.0331
vn -0.7748 -0.6308 -0.0428
vn -0.7794 -0.6242 0.0539
vn -0.5597 -0.0185 -0.8285
vn -0.7652 0.1488 0.6263
vn -0.9997 0.0063 0.0223
s off
f 140/1/1 81/2/1 77/3/1
f 82/4/2 1/5/2 6/6/2
f 78/7/3 3/8/3 79/9/3
f 80/10/4 3/8/4 4/11/4
f 80/10/5 5/12/5 81/2/5
f 77/3/6 5/12/6 1/5/6
f 82/4/7 7/13/7 83/14/7
f 83/14/8 8/15/8 84/16/8
f 8/15/9 48/17/9 49/18/9
f 37/19/10 32/20/10 38/21/10
f 39/22/10 27/23/10 40/24/10
f 42/25/11 35/26/11 33/27/11
f 43/28/12 17/29/12 44/30/12
f 45/31/13 22/32/13 46/33/13
f 47/34/14 36/35/14 48/17/14
f 86/36/15 19/37/15 18/38/15
f 50/39/16 31/40/16 51/41/16
f 52/42/10 20/43/10 39/22/10
f 38/21/10 26/44/10 53/45/10
f 54/46/17 28/47/17 45/31/17
f 41/48/11 17/29/11 35/26/11
f 40/24/10 30/49/10 37/19/10
f 48/17/18 19/37/18 49/18/18
f 50/39/19 24/50/19 23/51/19
f 55/52/20 33/27/20 24/50/20
f 56/53/21 26/44/21 25/54/21
f 56/53/22 34/55/22 47/34/22
f 51/41/23 29/56/23 54/46/23
f 113/57/24 91/58/24 120/59/24
f 92/60/25 9/61/25 87/62/25
f 11/63/26 88/64/26 89/65/26
f 90/66/27 11/63/27 89/65/27
f 13/67/28 90/66/28 91/58/28
f 87/62/29 13/67/29 91/58/29
f 15/68/30 92/60/30 93/69/30
f 16/70/31 93/69/31 94/71/31
f 107/72/32 68/73/32 16/70/32
f 32/20/33 57/74/33 58/75/33
f 27/23/33 59/76/33 60/77/33
f 62/78/34 35/26/34 61/79/34
f 17/29/35 63/80/35 64/81/35
f 22/32/36 65/82/36 66/83/36
f 68/73/37 34/55/37 67/84/37
f 19/37/38 69/85/38 96/86/38
f 31/40/39 70/87/39 71/88/39
f 20/43/33 72/89/33 59/76/33
f 26/44/33 58/75/33 73/90/33
f 28/47/40 74/91/40 65/82/40
f 61/79/41 17/29/41 64/81/41
f 30/49/33 60/77/33 57/74/33
f 69/85/42 36/35/42 68/73/42
f 70/87/43 24/50/43 75/92/43
f 33/27/44 163/93/44 161/94/44
f 76/95/45 26/44/45 73/90/45
f 34/55/46 76/95/46 67/84/46
f 29/56/47 71/88/47 74/91/47
f 146/96/48 81/2/48 149/97/48
f 6/6/49 47/34/49 7/13/49
f 6/6/21 53/45/21 56/53/21
f 148/98/19 55/52/19 50/39/19
f 142/99/50 79/9/50 144/100/50
f 136/101/51 78/7/51 142/99/51
f 3/8/10 37/19/10 4/11/10
f 139/102/10 52/42/10 39/22/10
f 146/96/52 79/9/52 80/10/52
f 5/12/10 53/45/10 1/5/10
f 139/102/53 85/103/53 52/42/53
f 150/104/54 83/14/54 152/105/54
f 84/16/55 135/106/55 157/107/55
f 7/13/14 48/17/14 8/15/14
f 158/108/56 46/33/56 85/103/56
f 133/109/57 86/36/57 43/28/57
f 152/105/58 84/16/58 155/110/58
f 2/111/10 40/24/10 3/8/10
f 4/11/10 38/21/10 5/12/10
f 91/58/59 119/112/59 120/59/59
f 67/84/60 14/113/60 15/68/60
f 14/113/45 73/90/45 9/61/45
f 121/114/61 75/92/61 112/115/61
f 89/65/62 115/116/62 117/117/62
f 88/64/63 109/118/63 115/116/63
f 57/74/33 11/63/33 12/119/33
f 59/76/64 72/89/64 110/120/64
f 119/112/65 89/65/65 117/117/65
f 73/90/33 13/67/33 9/61/33
f 72/89/66 131/121/66 110/120/66
f 93/69/67 123/122/67 125/123/67
f 106/124/68 94/71/68 128/125/68
f 16/70/37 67/84/37 15/68/37
f 95/126/69 108/127/69 131/121/69
f 105/128/70 96/86/70 129/129/70
f 94/71/71 125/123/71 126/130/71
f 60/77/33 10/131/33 11/63/33
f 58/75/33 12/119/33 13/67/33
f 156/132/57 49/18/57 86/36/57
f 159/133/72 2/111/72 78/7/72
f 133/109/73 44/30/73 154/134/73
f 153/135/74 44/30/74 41/48/74
f 151/136/11 41/48/11 42/25/11
f 150/104/75 77/3/75 82/4/75
f 148/98/76 51/41/76 147/137/76
f 147/137/77 54/46/77 145/138/77
f 143/139/17 54/46/17 45/31/17
f 141/140/20 42/25/20 55/52/20
f 137/141/13 45/31/13 46/33/13
f 129/129/78 69/85/78 107/72/78
f 10/131/79 130/142/79 88/64/79
f 64/81/80 105/128/80 127/143/80
f 124/144/81 64/81/81 127/143/81
f 122/145/82 61/79/82 124/144/82
f 123/122/83 87/62/83 113/57/83
f 71/88/84 121/114/84 118/146/84
f 74/91/85 118/146/85 116/147/85
f 65/82/86 116/147/86 114/148/86
f 62/78/87 165/149/87 163/93/87
f 66/83/88 114/148/88 108/127/88
f 85/103/89 99/150/89 102/151/89
f 52/42/90 97/152/90 21/153/90
f 100/154/91 103/155/91 98/156/91
f 97/152/92 102/151/92 103/155/92
f 21/153/66 95/126/66 72/89/66
f 102/151/91 98/156/91 103/155/91
f 22/32/93 99/150/93 46/33/93
f 97/152/92 101/157/92 95/126/92
f 22/32/94 100/154/94 98/156/94
f 95/126/95 100/154/95 66/83/95
f 127/143/96 104/158/96 126/130/96
f 107/72/97 128/125/97 129/129/97
f 108/127/98 130/142/98 131/121/98
f 112/115/99 120/59/99 121/114/99
f 108/127/100 115/116/100 109/118/100
f 114/148/101 117/117/101 115/116/101
f 116/147/102 119/112/102 117/117/102
f 118/146/103 120/59/103 119/112/103
f 122/145/104 113/57/104 112/115/104
f 124/144/105 123/122/105 122/145/105
f 127/143/106 125/123/106 124/144/106
f 129/129/107 104/158/107 105/128/107
f 131/121/108 111/159/108 110/120/108
f 104/158/109 94/71/109 126/130/109
f 132/160/110 154/134/110 155/161/110
f 157/107/111 134/162/111 156/132/111
f 159/133/112 137/141/112 158/108/112
f 149/97/113 141/140/113 148/98/113
f 142/99/114 137/141/114 136/101/114
f 144/100/115 143/139/115 142/99/115
f 146/96/116 145/138/116 144/100/116
f 149/97/117 147/137/117 146/96/117
f 140/1/118 151/136/118 141/140/118
f 150/104/119 153/135/119 151/136/119
f 152/105/120 154/134/120 153/135/120
f 132/160/121 156/132/121 133/109/121
f 138/163/122 158/108/122 139/102/122
f 132/160/123 84/16/123 157/107/123
f 162/164/124 161/94/124 163/93/124
f 164/165/125 163/93/125 165/149/125
f 24/50/126 161/94/126 160/166/126
f 75/92/127 164/165/127 112/115/127
f 24/50/128 162/164/128 75/92/128
f 112/115/129 165/149/129 122/145/129
f 140/1/1 149/97/1 81/2/1
f 82/4/130 77/3/130 1/5/130
f 78/7/131 2/111/131 3/8/131
f 80/10/132 79/9/132 3/8/132
f 80/10/4 4/11/4 5/12/4
f 77/3/133 81/2/133 5/12/133
f 82/4/134 6/6/134 7/13/134
f 83/14/135 7/13/135 8/15/135
f 49/18/136 134/162/136 8/15/136
f 134/162/137 135/106/137 8/15/137
f 37/19/10 30/49/10 32/20/10
f 39/22/10 20/43/10 27/23/10
f 42/25/11 41/48/11 35/26/11
f 43/28/138 18/38/138 17/29/138
f 45/31/13 28/47/13 22/32/13
f 47/34/14 34/55/14 36/35/14
f 18/38/15 43/28/15 86/36/15
f 86/36/15 49/18/15 19/37/15
f 50/39/76 23/51/76 31/40/76
f 52/42/10 21/153/10 20/43/10
f 38/21/10 32/20/10 26/44/10
f 54/46/17 29/56/17 28/47/17
f 41/48/139 44/30/139 17/29/139
f 40/24/10 27/23/10 30/49/10
f 48/17/140 36/35/140 19/37/140
f 50/39/19 55/52/19 24/50/19
f 55/52/20 42/25/20 33/27/20
f 56/53/21 53/45/21 26/44/21
f 56/53/141 25/54/141 34/55/141
f 51/41/142 31/40/142 29/56/142
f 113/57/143 87/62/143 91/58/143
f 92/60/144 14/113/144 9/61/144
f 11/63/145 10/131/145 88/64/145
f 90/66/146 12/119/146 11/63/146
f 13/67/146 12/119/146 90/66/146
f 87/62/147 9/61/147 13/67/147
f 15/68/148 14/113/148 92/60/148
f 16/70/149 15/68/149 93/69/149
f 16/70/150 106/124/150 107/72/150
f 107/72/151 69/85/151 68/73/151
f 32/20/33 30/49/33 57/74/33
f 27/23/33 20/43/33 59/76/33
f 62/78/34 33/27/34 35/26/34
f 17/29/152 18/38/152 63/80/152
f 22/32/36 28/47/36 65/82/36
f 68/73/37 36/35/37 34/55/37
f 96/86/153 63/80/153 18/38/153
f 18/38/154 19/37/154 96/86/154
f 31/40/39 23/51/39 70/87/39
f 20/43/33 21/153/33 72/89/33
f 26/44/33 32/20/33 58/75/33
f 28/47/40 29/56/40 74/91/40
f 61/79/34 35/26/34 17/29/34
f 30/49/33 27/23/33 60/77/33
f 69/85/155 19/37/155 36/35/155
f 70/87/43 23/51/43 24/50/43
f 33/27/44 62/78/44 163/93/44
f 76/95/45 25/54/45 26/44/45
f 34/55/156 25/54/156 76/95/156
f 29/56/157 31/40/157 71/88/157
f 146/96/158 80/10/158 81/2/158
f 6/6/159 56/53/159 47/34/159
f 6/6/21 1/5/21 53/45/21
f 148/98/19 141/140/19 55/52/19
f 142/99/160 78/7/160 79/9/160
f 136/101/161 159/133/161 78/7/161
f 3/8/10 40/24/10 37/19/10
f 39/22/10 2/111/10 139/102/10
f 2/111/10 138/163/10 139/102/10
f 146/96/162 144/100/162 79/9/162
f 5/12/10 38/21/10 53/45/10
f 139/102/91 158/108/91 85/103/91
f 150/104/163 82/4/163 83/14/163
f 84/16/164 8/15/164 135/106/164
f 7/13/14 47/34/14 48/17/14
f 158/108/91 137/141/91 46/33/91
f 133/109/57 156/132/57 86/36/57
f 152/105/165 83/14/165 84/16/165
f 2/111/10 39/22/10 40/24/10
f 4/11/10 37/19/10 38/21/10
f 91/58/166 90/66/166 119/112/166
f 67/84/167 76/95/167 14/113/167
f 14/113/45 76/95/45 73/90/45
f 121/114/61 70/87/61 75/92/61
f 89/65/168 88/64/168 115/116/168
f 88/64/169 130/142/169 109/118/169
f 57/74/33 60/77/33 11/63/33
f 111/159/170 10/131/170 110/120/170
f 10/131/171 59/76/171 110/120/171
f 119/112/172 90/66/172 89/65/172
f 73/90/33 58/75/33 13/67/33
f 72/89/69 95/126/69 131/121/69
f 93/69/173 92/60/173 123/122/173
f 106/124/174 16/70/174 94/71/174
f 16/70/37 68/73/37 67/84/37
f 95/126/91 66/83/91 108/127/91
f 105/128/175 63/80/175 96/86/175
f 94/71/176 93/69/176 125/123/176
f 60/77/33 59/76/33 10/131/33
f 58/75/33 57/74/33 12/119/33
f 156/132/57 134/162/57 49/18/57
f 159/133/177 138/163/177 2/111/177
f 133/109/178 43/28/178 44/30/178
f 153/135/179 154/134/179 44/30/179
f 151/136/11 153/135/11 41/48/11
f 150/104/180 140/1/180 77/3/180
f 148/98/16 50/39/16 51/41/16
f 147/137/181 51/41/181 54/46/181
f 143/139/17 145/138/17 54/46/17
f 141/140/20 151/136/20 42/25/20
f 137/141/13 143/139/13 45/31/13
f 129/129/182 96/86/182 69/85/182
f 10/131/183 111/159/183 130/142/183
f 64/81/184 63/80/184 105/128/184
f 124/144/185 61/79/185 64/81/185
f 122/145/82 62/78/82 61/79/82
f 123/122/186 92/60/186 87/62/186
f 71/88/84 70/87/84 121/114/84
f 74/91/187 71/88/187 118/146/187
f 65/82/86 74/91/86 116/147/86
f 62/78/87 122/145/87 165/149/87
f 66/83/88 65/82/88 114/148/88
f 85/103/89 46/33/89 99/150/89
f 52/42/56 85/103/56 97/152/56
f 100/154/91 101/157/91 103/155/91
f 97/152/92 85/103/92 102/151/92
f 21/153/188 97/152/188 95/126/188
f 102/151/56 99/150/56 98/156/56
f 22/32/93 98/156/93 99/150/93
f 97/152/92 103/155/92 101/157/92
f 22/32/94 66/83/94 100/154/94
f 95/126/95 101/157/95 100/154/95
f 127/143/189 105/128/189 104/158/189
f 107/72/190 106/124/190 128/125/190
f 108/127/191 109/118/191 130/142/191
f 112/115/192 113/57/192 120/59/192
f 108/127/193 114/148/193 115/116/193
f 114/148/194 116/147/194 117/117/194
f 116/147/195 118/146/195 119/112/195
f 118/146/196 121/114/196 120/59/196
f 122/145/197 123/122/197 113/57/197
f 124/144/198 125/123/198 123/122/198
f 127/143/199 126/130/199 125/123/199
f 129/129/200 128/125/200 104/158/200
f 131/121/201 130/142/201 111/159/201
f 104/158/202 128/125/202 94/71/202
f 132/160/203 133/109/203 154/134/203
f 157/107/204 135/106/204 134/162/204
f 159/133/205 136/101/205 137/141/205
f 149/97/206 140/1/206 141/140/206
f 142/99/207 143/139/207 137/141/207
f 144/100/208 145/138/208 143/139/208
f 146/96/209 147/137/209 145/138/209
f 149/97/210 148/98/210 147/137/210
f 140/1/211 150/104/211 151/136/211
f 150/104/212 152/105/212 153/135/212
f 152/105/213 155/110/213 154/134/213
f 132/160/214 157/107/214 156/132/214
f 138/163/215 159/133/215 158/108/215
f 132/160/216 155/161/216 84/16/216
f 162/164/124 160/166/124 161/94/124
f 164/165/125 162/164/125 163/93/125
f 24/50/126 33/27/126 161/94/126
f 75/92/127 162/164/127 164/165/127
f 24/50/128 160/166/128 162/164/128
f 112/115/129 164/165/129 165/149/129
